<svg id="svg" version="1.1" xmlns="http://www.w3.org/2000/svg" xmlns:xlink="http://www.w3.org/1999/xlink" width="400" height="400" viewBox="0, 0, 400,400"><g id="svgg"><path id="path0" d="M89.296 90.398 C 88.579 90.835,87.645 91.764,87.220 92.463 C 85.803 94.793,85.803 96.084,87.214 104.500 C 87.426 105.765,87.787 107.925,88.016 109.300 C 88.245 110.675,88.590 112.700,88.784 113.800 C 89.328 116.896,89.962 120.573,90.386 123.100 C 90.873 126.005,91.561 130.014,92.016 132.600 C 92.404 134.806,92.963 138.123,93.565 141.800 C 93.781 143.120,94.345 146.360,94.819 149.000 C 96.227 156.848,96.255 158.064,95.086 160.498 C 92.256 166.385,90.026 172.235,88.411 178.000 C 88.134 178.990,87.760 180.250,87.580 180.800 C 84.371 190.593,82.782 214.201,84.577 225.421 C 85.436 230.790,85.740 232.559,86.223 235.000 C 94.288 275.784,127.271 311.719,166.800 322.789 C 167.790 323.066,169.050 323.435,169.600 323.608 C 172.252 324.445,177.963 325.606,184.600 326.659 C 190.792 327.641,208.650 327.647,215.171 326.669 C 220.515 325.868,227.761 324.354,231.800 323.194 C 232.680 322.941,233.897 322.638,234.505 322.521 C 235.113 322.404,235.708 322.149,235.829 321.954 C 235.949 321.759,236.320 321.600,236.654 321.600 C 238.359 321.600,249.528 316.714,256.200 313.050 C 262.326 309.685,272.966 302.276,272.712 301.552 C 272.396 300.651,266.200 293.200,265.767 293.200 C 265.489 293.200,264.753 293.623,264.131 294.141 C 244.430 310.527,212.179 318.765,184.200 314.556 C 178.426 313.688,168.389 311.323,167.746 310.679 C 167.592 310.526,167.134 310.400,166.728 310.400 C 166.322 310.400,165.677 310.233,165.295 310.029 C 164.913 309.825,162.921 309.010,160.869 308.218 C 135.391 298.380,113.744 277.425,103.000 252.200 C 102.320 250.603,101.783 249.313,101.168 247.800 C 99.713 244.219,97.736 237.248,96.403 231.000 C 93.119 215.612,94.059 196.139,98.817 181.000 C 99.024 180.340,99.448 178.990,99.759 178.000 C 100.474 175.723,101.474 173.080,102.444 170.904 C 102.860 169.972,103.200 169.139,103.200 169.053 C 103.200 168.967,104.100 166.998,105.200 164.678 C 107.598 159.619,107.585 159.961,105.776 149.351 C 104.993 144.758,104.176 139.920,103.962 138.600 C 103.421 135.273,102.878 132.045,102.363 129.100 C 102.123 127.725,101.779 125.700,101.600 124.600 C 101.421 123.500,101.077 121.475,100.837 120.100 C 100.597 118.725,100.203 116.475,99.963 115.100 C 99.723 113.725,99.377 111.700,99.196 110.600 C 99.014 109.500,98.737 107.835,98.580 106.900 C 98.199 104.633,98.142 104.619,105.732 108.550 C 123.001 117.495,127.279 119.640,127.614 119.525 C 127.957 119.407,126.659 117.696,116.597 105.000 C 111.107 98.074,111.356 98.269,102.191 93.643 C 93.382 89.196,91.886 88.819,89.296 90.398 M299.600 94.640 C 295.970 96.520,289.130 100.049,284.400 102.482 C 279.670 104.915,273.246 108.232,270.126 109.853 C 263.667 113.207,263.725 113.195,261.472 111.664 C 251.200 104.685,235.311 98.583,219.600 95.584 C 209.455 93.648,189.034 93.653,180.200 95.595 C 179.320 95.788,177.430 96.159,176.000 96.418 C 174.570 96.677,172.860 97.050,172.200 97.246 C 171.540 97.443,169.470 98.038,167.600 98.569 C 163.545 99.720,157.688 101.758,155.273 102.858 C 153.156 103.822,153.115 103.690,157.084 108.774 C 160.683 113.385,160.587 113.352,165.371 111.654 C 167.147 111.024,169.410 110.283,170.400 110.008 C 171.390 109.733,172.650 109.357,173.200 109.173 C 180.104 106.863,196.527 105.278,206.119 105.997 C 217.985 106.887,226.648 108.706,236.592 112.398 C 240.261 113.760,242.069 114.516,246.000 116.331 C 248.734 117.592,254.585 120.936,258.111 123.252 C 263.182 126.581,262.931 126.617,273.754 121.050 C 305.457 104.745,302.683 106.008,302.199 108.100 C 302.034 108.815,301.758 110.300,301.587 111.400 C 301.415 112.500,301.077 114.525,300.837 115.900 C 300.597 117.275,300.203 119.525,299.963 120.900 C 299.723 122.275,299.379 124.300,299.200 125.400 C 298.869 127.428,298.316 130.648,297.549 135.000 C 297.316 136.320,296.979 138.300,296.800 139.400 C 296.621 140.500,296.271 142.570,296.023 144.000 C 295.775 145.430,295.391 147.680,295.170 149.000 C 294.949 150.320,294.590 152.390,294.372 153.600 C 293.251 159.820,293.389 161.905,295.182 165.800 C 296.093 167.780,296.991 169.760,297.178 170.200 C 297.365 170.640,297.793 171.630,298.129 172.400 C 298.798 173.935,301.205 181.201,301.938 183.900 C 305.770 198.007,306.568 212.063,304.363 226.600 C 303.958 229.274,303.736 230.405,302.775 234.700 C 301.948 238.394,299.734 245.664,298.725 248.000 C 298.487 248.550,298.155 249.360,297.986 249.800 C 295.954 255.102,291.620 263.398,288.308 268.324 C 286.997 270.275,286.464 271.407,286.707 271.724 C 290.198 276.276,293.358 279.949,293.636 279.778 C 296.642 277.920,306.708 258.731,310.201 248.200 C 319.579 219.924,317.595 185.496,305.185 161.171 C 304.316 159.466,304.434 158.124,306.400 147.400 C 306.642 146.080,307.011 143.965,307.220 142.700 C 308.236 136.549,308.764 133.445,309.616 128.600 C 309.952 126.692,310.340 124.384,311.180 119.300 C 311.389 118.035,311.758 115.920,312.000 114.600 C 312.242 113.280,312.605 111.120,312.808 109.800 C 313.010 108.480,313.448 105.870,313.780 104.000 C 314.650 99.111,314.584 96.106,313.569 94.442 C 310.831 89.951,308.589 89.983,299.600 94.640 M182.333 156.315 C 182.260 156.488,181.394 157.253,180.410 158.015 C 179.425 158.777,178.386 159.616,178.100 159.881 C 177.815 160.145,176.505 161.207,175.191 162.240 C 172.906 164.035,172.361 164.882,173.170 165.381 C 173.496 165.583,178.060 162.187,180.773 159.726 C 182.370 158.277,182.376 158.958,180.808 163.693 C 178.020 172.117,177.916 172.800,179.421 172.800 C 179.962 172.800,184.016 169.738,186.968 167.100 C 187.399 166.714,188.346 165.994,189.073 165.500 C 190.483 164.540,190.768 163.716,189.815 163.351 C 189.357 163.174,186.162 165.378,184.800 166.810 C 184.022 167.629,181.125 169.659,180.965 169.498 C 180.782 169.315,182.238 164.433,184.028 159.226 C 184.578 157.627,184.660 156.914,184.339 156.526 C 183.861 155.951,182.546 155.812,182.333 156.315 M160.800 171.100 C 155.538 171.392,150.486 174.572,147.192 179.664 C 144.680 183.545,143.904 186.326,143.917 191.388 C 143.977 214.764,172.429 219.844,179.832 197.800 C 181.314 193.385,180.934 186.585,179.048 183.800 C 176.517 180.062,170.341 172.878,169.335 172.500 C 168.711 172.266,167.840 171.941,167.400 171.778 C 166.203 171.333,162.836 170.987,160.800 171.100 M187.000 171.386 C 183.424 173.247,182.193 176.804,184.211 179.449 C 186.248 182.121,189.664 182.000,192.378 179.160 C 196.155 175.208,191.787 168.895,187.000 171.386 M234.873 171.203 C 228.284 172.594,221.588 179.727,220.604 186.403 L 220.338 188.205 225.269 194.421 C 227.981 197.839,232.139 203.089,234.508 206.088 C 239.420 212.302,239.052 212.048,242.108 211.340 C 254.584 208.450,260.596 193.835,254.490 181.234 C 252.258 176.627,249.054 173.730,243.902 171.660 C 242.363 171.042,236.938 170.767,234.873 171.203 M191.418 173.382 C 193.151 175.114,192.117 177.892,189.172 179.414 C 185.868 181.123,183.143 176.888,185.900 174.328 C 188.256 172.141,189.896 171.860,191.418 173.382 M197.709 178.292 C 196.347 178.415,196.035 178.588,196.109 179.179 C 196.168 179.657,195.225 180.734,193.400 182.272 C 189.925 185.200,189.379 188.800,192.409 188.800 C 193.350 188.800,193.431 188.290,192.600 187.600 C 191.486 186.676,191.968 185.662,194.494 183.618 C 197.259 181.381,198.059 181.179,198.974 182.484 C 199.957 183.887,200.617 182.844,199.728 181.293 C 199.058 180.126,199.057 180.021,199.711 179.298 C 200.321 178.624,200.274 177.878,199.633 178.070 C 199.505 178.108,198.639 178.208,197.709 178.292 M170.888 183.061 C 176.643 185.954,176.491 195.381,170.646 198.035 C 167.641 199.400,164.893 198.841,162.495 196.378 C 156.339 190.057,163.188 179.191,170.888 183.061 M247.753 183.224 C 254.165 187.618,251.504 198.400,244.006 198.400 C 237.915 198.400,234.414 191.266,237.813 185.778 C 240.089 182.104,244.474 180.977,247.753 183.224 M210.200 189.405 C 208.849 189.734,205.743 190.662,202.800 191.614 C 200.930 192.219,198.950 192.822,198.400 192.953 C 196.692 193.362,196.178 193.851,196.741 194.529 C 197.171 195.047,197.489 195.024,199.316 194.347 L 201.400 193.575 203.092 195.488 C 205.014 197.660,205.119 198.207,204.000 200.200 C 203.158 201.700,202.944 203.200,203.573 203.200 C 203.992 203.200,205.088 201.740,206.353 199.500 C 206.819 198.675,207.560 197.370,208.000 196.600 C 208.440 195.830,209.177 194.525,209.638 193.700 C 210.098 192.875,210.638 192.029,210.838 191.820 C 211.648 190.971,211.172 189.169,210.200 189.405 M207.998 193.403 C 206.635 196.053,206.152 196.338,205.002 195.168 C 203.433 193.573,203.594 193.176,206.200 192.215 C 209.127 191.136,209.155 191.154,207.998 193.403 M218.389 201.075 C 217.205 201.883,211.950 206.129,210.110 207.764 C 208.399 209.285,208.430 209.450,210.900 212.033 C 214.356 215.646,216.892 216.153,220.244 213.900 C 225.005 210.701,225.241 207.203,221.051 201.900 C 219.688 200.175,219.702 200.179,218.389 201.075 M221.209 204.678 C 224.987 210.635,217.657 216.354,212.500 211.474 C 210.555 209.632,210.706 209.234,214.400 206.457 C 215.170 205.878,215.890 205.311,216.000 205.196 C 218.648 202.432,219.717 202.326,221.209 204.678 M221.600 216.100 C 218.464 218.241,217.998 221.944,220.569 224.300 C 223.131 226.647,227.169 225.512,229.038 221.920 C 231.332 217.512,225.834 213.210,221.600 216.100 M227.074 217.670 C 229.255 219.719,226.561 224.000,223.090 224.000 C 221.136 224.000,219.650 221.333,220.683 219.679 C 222.461 216.833,225.250 215.956,227.074 217.670 M230.198 224.966 C 229.667 225.497,229.116 226.397,228.973 226.966 C 228.786 227.712,228.451 228.000,227.771 228.000 C 227.252 228.000,226.649 228.335,226.429 228.745 C 226.140 229.286,225.581 229.491,224.399 229.491 C 220.635 229.491,221.002 234.344,224.963 236.939 C 229.088 239.641,232.435 234.783,228.626 231.622 C 227.785 230.924,227.800 229.200,228.647 229.200 C 229.003 229.200,229.909 229.740,230.661 230.400 C 232.406 231.932,234.053 231.983,235.489 230.548 C 236.353 229.683,236.670 229.576,237.265 229.948 C 239.000 231.031,238.780 229.974,236.700 227.237 C 233.952 223.621,232.166 222.997,230.198 224.966 M234.570 226.367 C 236.312 228.292,233.505 231.185,231.458 229.574 C 230.876 229.116,230.400 228.364,230.400 227.902 C 230.400 225.854,233.180 224.830,234.570 226.367 M227.569 232.688 C 229.023 234.453,229.134 235.502,227.915 235.953 C 225.299 236.921,221.884 232.567,224.062 231.042 C 225.130 230.293,225.887 230.649,227.569 232.688 M190.800 232.849 C 177.818 233.286,176.761 234.275,180.377 242.600 C 184.103 251.179,188.821 259.281,193.420 265.000 C 194.922 266.867,194.889 266.922,190.390 270.265 C 180.324 277.743,168.501 278.402,160.713 271.919 C 159.111 270.584,155.200 265.423,155.200 264.642 C 155.200 264.504,154.864 263.628,154.452 262.696 C 154.041 261.763,153.480 260.190,153.206 259.200 C 152.931 258.210,152.548 256.878,152.353 256.240 C 152.159 255.602,151.999 254.522,151.999 253.840 C 151.994 249.807,147.426 248.157,145.974 251.663 C 145.118 253.731,146.997 261.482,149.816 267.511 C 158.338 285.736,179.633 288.467,196.756 273.532 C 199.002 271.573,199.246 271.596,201.906 274.027 C 216.944 287.771,237.304 285.713,244.624 269.710 L 245.637 267.496 244.628 266.048 C 241.648 261.769,241.285 261.705,239.865 265.213 C 234.443 278.607,218.087 280.198,205.500 268.555 C 203.600 266.798,203.594 266.852,206.121 263.453 C 212.004 255.542,219.200 241.106,219.200 237.214 C 219.200 233.600,210.087 232.200,190.800 232.849 M209.400 239.925 C 211.271 240.187,211.395 240.276,211.325 241.301 C 211.103 244.535,200.858 261.600,199.137 261.600 C 197.498 261.600,186.083 242.563,186.477 240.485 C 186.701 239.304,202.244 238.924,209.400 239.925 " stroke="none" fill="#0a0a0a" fill-rule="evenodd"></path><path id="path1" d="M192.000 23.664 C 181.719 24.188,170.791 25.441,164.600 26.806 C 163.720 27.000,161.740 27.376,160.200 27.642 C 158.660 27.908,156.410 28.381,155.200 28.694 C 144.519 31.456,141.631 32.281,138.000 33.608 C 136.130 34.291,133.278 35.299,131.663 35.847 C 130.048 36.396,127.798 37.263,126.663 37.774 C 125.528 38.285,122.440 39.651,119.800 40.810 C 104.839 47.376,85.151 59.696,76.000 68.217 C 75.010 69.139,72.760 71.117,71.000 72.611 C 63.195 79.240,52.428 90.980,46.736 99.066 C 45.781 100.423,44.183 102.673,43.184 104.066 C 41.337 106.643,36.800 113.895,36.800 114.270 C 36.800 114.384,36.437 114.986,35.994 115.608 C 34.900 117.145,28.400 130.022,27.215 133.000 C 26.690 134.320,25.598 136.930,24.787 138.800 C 23.091 142.715,22.170 145.321,20.408 151.200 C 19.715 153.510,18.992 155.850,18.800 156.400 C 18.609 156.950,18.073 159.200,17.610 161.400 C 17.146 163.600,16.595 166.165,16.384 167.100 C 15.422 171.362,15.231 172.421,14.816 175.800 C 14.574 177.780,14.206 180.750,13.999 182.400 C 12.768 192.236,12.768 207.764,13.999 217.600 C 14.206 219.250,14.574 222.220,14.816 224.200 C 15.241 227.664,15.459 228.878,16.356 232.800 C 16.582 233.790,17.146 236.400,17.610 238.600 C 18.073 240.800,18.609 243.050,18.800 243.600 C 18.992 244.150,19.715 246.490,20.408 248.800 C 22.170 254.679,23.091 257.285,24.787 261.200 C 25.598 263.070,26.690 265.680,27.215 267.000 C 28.400 269.978,34.900 282.855,35.994 284.392 C 36.437 285.014,36.800 285.616,36.800 285.730 C 36.800 286.105,41.337 293.357,43.184 295.934 C 44.183 297.327,45.781 299.577,46.736 300.934 C 52.428 309.020,63.195 320.760,71.000 327.389 C 72.760 328.883,75.010 330.861,76.000 331.783 C 85.151 340.304,104.839 352.624,119.800 359.190 C 122.440 360.349,125.528 361.715,126.663 362.226 C 127.798 362.737,130.048 363.604,131.663 364.153 C 133.278 364.701,136.130 365.709,138.000 366.392 C 141.631 367.719,144.519 368.544,155.200 371.306 C 156.410 371.619,158.660 372.092,160.200 372.358 C 161.740 372.624,163.720 373.000,164.600 373.194 C 179.020 376.374,202.506 377.379,220.200 375.574 C 227.532 374.826,231.385 374.352,233.000 374.001 C 233.880 373.810,235.770 373.447,237.200 373.194 C 242.000 372.346,249.598 370.665,251.600 370.009 C 252.150 369.828,254.130 369.279,256.000 368.789 C 259.999 367.740,261.439 367.280,266.000 365.600 C 267.870 364.911,270.210 364.080,271.200 363.753 C 272.190 363.427,273.360 362.995,273.800 362.793 C 274.240 362.592,277.120 361.335,280.200 360.001 C 286.310 357.354,287.877 356.592,294.876 352.868 C 303.451 348.306,308.916 344.770,320.200 336.481 C 332.608 327.367,348.412 310.600,359.211 295.091 C 361.546 291.738,367.531 281.611,369.785 277.200 C 370.853 275.110,372.328 272.260,373.063 270.867 C 373.798 269.474,374.400 268.167,374.400 267.962 C 374.400 267.758,374.741 266.828,375.157 265.896 C 376.725 262.380,379.531 254.869,380.571 251.400 C 381.165 249.420,381.810 247.350,382.004 246.800 C 382.523 245.336,383.871 240.420,384.199 238.800 C 384.355 238.030,384.622 236.770,384.793 236.000 C 385.749 231.691,386.399 228.243,386.791 225.400 C 387.033 223.640,387.408 220.940,387.623 219.400 C 389.113 208.721,389.113 191.279,387.623 180.600 C 387.408 179.060,387.033 176.360,386.791 174.600 C 386.399 171.757,385.749 168.309,384.793 164.000 C 384.622 163.230,384.355 161.970,384.199 161.200 C 383.871 159.580,382.523 154.664,382.004 153.200 C 381.810 152.650,381.165 150.580,380.571 148.600 C 379.531 145.131,376.725 137.620,375.157 134.104 C 374.741 133.172,374.400 132.242,374.400 132.038 C 374.400 131.833,373.798 130.526,373.063 129.133 C 372.328 127.740,370.853 124.890,369.785 122.800 C 358.679 101.066,338.542 76.992,320.200 63.519 C 311.306 56.986,309.614 55.835,301.965 51.110 C 299.641 49.675,292.567 45.837,288.000 43.534 C 286.790 42.924,283.280 41.333,280.200 39.999 C 277.120 38.665,274.240 37.408,273.800 37.207 C 273.360 37.005,272.190 36.573,271.200 36.247 C 270.210 35.920,267.870 35.089,266.000 34.400 C 261.439 32.720,259.999 32.260,256.000 31.211 C 254.130 30.721,252.150 30.172,251.600 29.991 C 249.598 29.335,242.000 27.654,237.200 26.806 C 235.770 26.553,233.880 26.190,233.000 25.999 C 231.385 25.648,227.538 25.175,220.200 24.426 C 215.998 23.997,200.773 23.144,199.400 23.261 C 198.960 23.298,195.630 23.480,192.000 23.664 M215.400 44.627 C 219.360 44.959,223.770 45.392,225.200 45.588 C 226.630 45.785,229.150 46.115,230.800 46.322 C 233.425 46.651,239.753 48.038,244.000 49.214 C 244.770 49.427,247.020 50.037,249.000 50.568 C 256.549 52.594,267.018 56.449,276.200 60.583 C 276.860 60.881,278.089 61.407,278.930 61.754 C 286.152 64.729,303.232 75.845,311.555 82.986 C 318.501 88.946,329.246 99.648,333.056 104.400 C 339.308 112.197,339.889 112.987,344.104 119.400 C 347.854 125.107,355.007 138.277,356.379 142.000 C 356.663 142.770,357.233 144.163,357.647 145.096 C 358.061 146.028,358.400 147.027,358.400 147.316 C 358.400 147.604,358.561 148.011,358.758 148.220 C 358.954 148.429,359.872 150.940,360.798 153.800 C 361.723 156.660,362.805 159.990,363.201 161.200 C 363.597 162.410,364.230 164.930,364.606 166.800 C 364.983 168.670,365.455 170.920,365.657 171.800 C 368.805 185.560,368.805 214.440,365.657 228.200 C 365.455 229.080,364.983 231.330,364.606 233.200 C 364.230 235.070,363.597 237.590,363.201 238.800 C 362.805 240.010,361.723 243.340,360.798 246.200 C 359.872 249.060,358.954 251.571,358.758 251.780 C 358.561 251.989,358.400 252.396,358.400 252.684 C 358.400 252.973,358.061 253.972,357.647 254.904 C 357.233 255.837,356.663 257.230,356.379 258.000 C 354.056 264.305,343.377 282.594,338.161 289.200 C 331.677 297.410,329.016 300.458,323.869 305.566 L 318.059 311.331 317.088 310.166 C 316.554 309.524,313.113 305.220,309.442 300.600 C 305.771 295.980,302.548 291.930,302.278 291.600 C 302.009 291.270,301.161 290.194,300.394 289.210 C 299.628 288.225,298.760 287.163,298.468 286.849 C 298.175 286.535,297.240 285.360,296.390 284.239 C 295.540 283.118,294.195 281.480,293.400 280.600 C 292.605 279.720,290.839 277.580,289.477 275.845 C 272.395 254.085,255.653 233.020,236.600 209.313 C 231.345 202.774,225.247 195.086,222.400 191.410 C 220.750 189.280,215.018 182.016,209.663 175.268 C 204.308 168.521,199.070 161.920,198.024 160.600 C 193.024 154.290,174.921 131.551,167.931 122.800 C 155.681 107.464,153.101 104.198,151.600 102.129 C 150.830 101.068,149.972 99.959,149.694 99.665 C 149.416 99.371,148.696 98.471,148.094 97.665 C 147.492 96.859,146.772 95.959,146.494 95.665 C 146.216 95.371,145.496 94.476,144.894 93.676 C 143.935 92.402,124.367 67.776,121.789 64.600 C 120.269 62.728,119.542 63.237,130.800 58.300 C 135.512 56.233,150.463 51.017,154.400 50.066 C 155.390 49.826,158.900 48.970,162.200 48.163 C 165.500 47.356,169.370 46.550,170.800 46.373 C 172.230 46.196,174.930 45.841,176.800 45.584 C 188.132 44.028,203.666 43.642,215.400 44.627 M98.607 82.100 C 100.059 83.915,101.531 85.747,101.880 86.171 C 102.228 86.594,103.128 87.747,103.879 88.731 C 106.262 91.853,108.104 94.119,110.599 97.000 C 111.933 98.540,113.872 100.880,114.907 102.200 C 115.943 103.520,118.729 107.030,121.099 110.000 C 125.517 115.537,125.731 115.811,128.783 119.844 C 131.044 122.831,163.245 163.246,173.400 175.841 C 174.500 177.206,176.480 179.720,177.800 181.428 C 182.239 187.172,222.800 238.222,235.580 254.149 C 239.441 258.961,243.680 264.287,245.000 265.985 C 248.825 270.903,252.855 275.975,260.378 285.339 C 264.240 290.145,267.940 294.751,268.600 295.575 C 269.260 296.399,271.223 298.946,272.963 301.236 C 277.025 306.583,278.479 308.450,279.106 309.125 C 279.384 309.424,280.104 310.322,280.706 311.121 C 281.308 311.919,284.725 316.242,288.300 320.727 C 291.875 325.212,294.800 329.007,294.800 329.162 C 294.800 329.499,280.308 337.772,278.606 338.406 C 277.949 338.651,276.869 339.100,276.206 339.404 C 267.771 343.270,256.546 347.407,249.000 349.432 C 247.020 349.963,244.770 350.573,244.000 350.786 C 239.753 351.962,233.425 353.349,230.800 353.678 C 229.150 353.885,226.630 354.215,225.200 354.412 C 210.837 356.387,191.163 356.387,176.800 354.412 C 175.370 354.215,172.850 353.885,171.200 353.678 C 169.550 353.472,165.500 352.643,162.200 351.836 C 158.900 351.029,155.390 350.174,154.400 349.934 C 150.328 348.951,135.434 343.732,130.400 341.526 C 120.341 337.117,121.382 337.624,114.594 333.820 C 109.781 331.123,106.017 328.789,102.640 326.407 C 96.046 321.756,92.816 319.376,91.633 318.295 C 90.845 317.575,88.400 315.430,86.200 313.529 C 65.231 295.407,47.448 268.183,39.997 242.800 C 39.513 241.150,38.954 239.350,38.755 238.800 C 38.076 236.924,35.647 225.133,35.171 221.400 C 33.082 205.047,33.082 194.953,35.171 178.600 C 35.647 174.867,38.076 163.076,38.755 161.200 C 38.954 160.650,39.513 158.850,39.997 157.200 C 47.448 131.817,65.231 104.593,86.200 86.471 C 88.400 84.570,90.888 82.385,91.729 81.616 C 93.354 80.130,95.214 78.807,95.684 78.803 C 95.840 78.801,97.156 80.285,98.607 82.100 M184.577 156.109 C 185.125 156.946,185.029 157.463,183.376 162.565 C 182.387 165.615,181.665 168.198,181.771 168.304 C 181.965 168.498,183.799 167.153,187.324 164.230 C 189.297 162.594,190.600 162.546,190.600 164.111 C 190.600 164.825,180.402 173.200,179.533 173.200 C 177.631 173.200,177.641 172.152,179.605 166.018 C 181.600 159.784,181.599 159.608,179.563 161.266 C 174.242 165.603,173.498 166.069,172.881 165.453 C 171.936 164.507,172.456 163.897,178.020 159.429 C 183.820 154.772,183.731 154.817,184.577 156.109 M191.873 171.300 C 195.125 173.512,195.130 177.687,191.884 180.163 C 188.902 182.438,186.251 182.302,184.020 179.762 C 180.066 175.258,186.887 167.908,191.873 171.300 M187.098 173.811 C 184.828 175.353,184.557 177.487,186.451 178.899 C 189.139 180.904,193.565 175.965,191.200 173.600 C 190.129 172.529,188.891 172.592,187.098 173.811 M200.709 178.327 C 200.804 178.613,200.566 179.196,200.179 179.623 C 199.524 180.347,199.521 180.450,200.138 181.131 C 201.610 182.758,200.203 184.306,198.612 182.811 C 197.478 181.746,197.441 181.754,195.206 183.500 C 192.533 185.589,192.188 186.216,193.015 187.480 C 193.589 188.355,193.602 188.570,193.111 189.061 C 191.481 190.691,189.043 186.283,190.513 184.364 C 190.781 184.014,192.129 182.789,193.510 181.641 C 194.890 180.494,195.909 179.376,195.774 179.158 C 195.199 178.227,195.970 177.800,198.217 177.804 C 199.759 177.807,200.594 177.983,200.709 178.327 M211.564 189.532 C 212.017 190.378,212.096 190.206,207.752 197.847 C 204.549 203.479,203.850 204.230,202.952 203.002 C 202.493 202.375,202.563 202.009,203.450 200.379 C 204.610 198.248,204.528 197.650,202.800 195.633 L 201.629 194.265 199.448 194.788 C 194.047 196.084,194.609 193.687,200.100 192.010 C 202.355 191.321,205.460 190.331,207.000 189.810 C 210.453 188.642,211.067 188.605,211.564 189.532 M205.500 192.865 C 204.226 193.330,204.180 193.508,205.023 194.711 C 205.894 195.954,206.265 195.833,207.200 194.000 C 208.113 192.211,207.822 192.017,205.500 192.865 M220.885 201.100 C 225.574 206.086,225.475 210.965,220.617 214.266 C 217.304 216.517,213.901 215.916,210.809 212.534 C 207.451 208.859,207.260 209.435,213.498 204.428 C 219.640 199.498,219.456 199.580,220.885 201.100 M215.300 206.227 C 211.229 209.532,211.104 209.777,212.700 211.300 C 217.917 216.276,224.852 209.332,220.090 203.900 C 219.257 202.950,219.458 202.852,215.300 206.227 M227.519 215.449 C 229.584 216.784,230.552 219.777,229.551 221.726 C 227.115 226.468,221.577 227.405,219.184 223.481 C 216.243 218.658,222.765 212.373,227.519 215.449 M222.160 218.560 C 220.036 220.684,220.752 223.600,223.399 223.600 C 224.692 223.600,227.600 220.999,227.600 219.842 C 227.600 216.999,224.461 216.259,222.160 218.560 M234.396 223.998 C 235.356 224.512,238.800 229.034,238.800 229.781 C 238.800 230.622,238.125 230.895,237.230 230.416 C 236.639 230.100,236.363 230.130,236.121 230.539 C 235.081 232.301,232.280 232.437,230.385 230.816 C 228.037 228.809,227.748 229.343,229.600 232.264 C 232.768 237.259,228.039 240.456,223.666 236.275 C 220.159 232.923,220.459 229.438,224.298 228.923 C 225.228 228.798,226.193 228.450,226.443 228.148 C 226.693 227.847,227.232 227.600,227.641 227.600 C 228.101 227.600,228.481 227.218,228.636 226.599 C 229.197 224.362,232.386 222.922,234.396 223.998 M231.204 226.595 C 230.602 227.321,230.989 229.144,231.813 229.460 C 232.779 229.831,234.329 229.253,234.592 228.424 C 235.178 226.578,232.444 225.102,231.204 226.595 M223.736 231.824 C 223.081 233.528,226.412 236.465,227.826 235.430 C 228.569 234.887,228.554 234.815,227.340 233.135 C 225.967 231.233,224.208 230.593,223.736 231.824 M190.100 240.297 C 188.505 240.373,187.200 240.610,187.200 240.825 C 187.200 242.736,198.060 260.840,199.177 260.790 C 200.771 260.719,211.383 242.023,210.392 241.032 C 209.646 240.286,198.681 239.889,190.100 240.297 " stroke="none" fill="#fb6b6b" fill-rule="evenodd"></path><path id="path2" d="M192.707 23.490 C 193.426 23.579,194.506 23.577,195.107 23.486 C 195.708 23.395,195.120 23.322,193.800 23.324 C 192.480 23.326,191.988 23.401,192.707 23.490 M206.900 23.487 C 207.505 23.578,208.495 23.578,209.100 23.487 C 209.705 23.395,209.210 23.320,208.000 23.320 C 206.790 23.320,206.295 23.395,206.900 23.487 M186.505 23.887 C 187.114 23.979,188.014 23.977,188.505 23.882 C 188.997 23.787,188.500 23.711,187.400 23.714 C 186.300 23.717,185.897 23.795,186.505 23.887 M213.300 23.887 C 213.905 23.978,214.895 23.978,215.500 23.887 C 216.105 23.795,215.610 23.720,214.400 23.720 C 213.190 23.720,212.695 23.795,213.300 23.887 M194.700 44.282 C 195.195 44.378,196.005 44.378,196.500 44.282 C 196.995 44.187,196.590 44.109,195.600 44.109 C 194.610 44.109,194.205 44.187,194.700 44.282 M205.305 44.287 C 205.914 44.379,206.814 44.377,207.305 44.282 C 207.797 44.187,207.300 44.111,206.200 44.114 C 205.100 44.117,204.697 44.195,205.305 44.287 M188.905 44.687 C 189.514 44.779,190.414 44.777,190.905 44.682 C 191.397 44.587,190.900 44.511,189.800 44.514 C 188.700 44.517,188.297 44.595,188.905 44.687 M210.900 44.687 C 211.505 44.778,212.495 44.778,213.100 44.687 C 213.705 44.595,213.210 44.520,212.000 44.520 C 210.790 44.520,210.295 44.595,210.900 44.687 M75.375 68.500 L 74.200 69.800 75.500 68.625 C 76.712 67.530,76.984 67.200,76.675 67.200 C 76.606 67.200,76.021 67.785,75.375 68.500 M328.000 69.725 C 328.000 69.794,328.585 70.379,329.300 71.025 L 330.600 72.200 329.425 70.900 C 328.330 69.688,328.000 69.416,328.000 69.725 M338.000 79.400 C 341.184 82.590,343.880 85.200,343.990 85.200 C 344.100 85.200,341.584 82.590,338.400 79.400 C 335.216 76.210,332.520 73.600,332.410 73.600 C 332.300 73.600,334.816 76.210,338.000 79.400 M308.000 80.125 C 308.000 80.194,308.585 80.779,309.300 81.425 L 310.600 82.600 309.425 81.300 C 308.330 80.088,308.000 79.816,308.000 80.125 M91.375 82.100 L 90.200 83.400 91.500 82.225 C 92.712 81.130,92.984 80.800,92.675 80.800 C 92.606 80.800,92.021 81.385,91.375 82.100 M90.665 88.899 C 86.576 89.956,84.739 94.134,85.779 100.013 C 86.148 102.096,86.609 104.790,86.803 106.000 C 86.998 107.210,87.698 111.350,88.359 115.200 C 89.855 123.910,91.974 136.301,93.780 146.900 C 94.539 151.355,95.280 155.580,95.428 156.290 C 95.647 157.344,95.259 158.546,93.297 162.890 C 82.563 186.654,80.059 215.789,86.669 240.000 C 86.999 241.210,87.415 242.740,87.593 243.400 C 96.902 277.923,126.585 309.981,159.600 321.171 C 161.030 321.656,162.560 322.213,163.000 322.409 C 165.599 323.568,173.991 325.675,180.400 326.778 C 211.753 332.173,245.715 323.863,270.211 304.802 C 271.538 303.770,272.888 302.822,273.211 302.694 C 273.673 302.513,273.681 302.456,273.249 302.432 C 272.946 302.414,271.506 303.279,270.049 304.352 C 233.412 331.357,187.267 335.477,147.400 315.304 C 123.168 303.043,101.604 279.707,92.415 255.800 C 92.245 255.360,91.920 254.550,91.691 254.000 C 90.488 251.110,89.393 247.906,88.411 244.400 C 88.134 243.410,87.765 242.150,87.592 241.600 C 87.418 241.050,87.068 239.700,86.813 238.600 C 86.558 237.500,86.190 235.970,85.995 235.200 C 85.105 231.680,84.470 226.658,83.871 218.400 C 82.883 204.791,84.230 191.839,88.012 178.600 C 88.201 177.940,88.527 176.770,88.738 176.000 C 89.284 174.008,91.135 168.902,92.036 166.904 C 92.456 165.972,92.800 165.113,92.800 164.996 C 92.800 164.879,93.535 163.212,94.434 161.291 C 96.171 157.580,96.156 157.754,95.204 152.600 C 94.960 151.280,94.583 149.120,94.366 147.800 C 94.149 146.480,93.798 144.365,93.586 143.100 C 93.374 141.835,93.029 139.765,92.820 138.500 C 92.611 137.235,92.242 135.120,92.000 133.800 C 91.758 132.480,91.389 130.365,91.180 129.100 C 90.388 124.307,89.986 121.922,89.563 119.500 C 89.323 118.125,88.977 116.100,88.795 115.000 C 88.065 110.588,87.573 107.694,87.200 105.600 C 86.984 104.390,86.644 102.320,86.443 101.000 C 86.243 99.680,85.946 98.270,85.783 97.866 C 85.215 96.452,86.460 92.740,88.029 91.171 C 90.957 88.243,92.621 88.486,101.800 93.180 C 110.671 97.718,111.107 97.861,109.098 95.581 C 108.604 95.021,108.361 94.800,108.557 95.091 C 109.403 96.344,108.065 95.855,101.336 92.450 C 93.562 88.518,92.942 88.311,90.665 88.899 M294.600 96.401 C 288.220 99.693,278.671 104.579,273.381 107.259 L 263.762 112.132 260.731 110.292 C 239.563 97.443,211.270 90.851,189.221 93.631 C 175.023 95.422,164.564 98.006,155.412 101.983 C 154.318 102.458,153.103 102.763,152.711 102.661 C 152.319 102.558,152.100 102.638,152.223 102.837 C 152.595 103.439,153.731 103.254,156.431 102.150 C 167.098 97.788,176.120 95.640,190.627 94.008 C 201.203 92.818,218.331 94.379,229.600 97.560 C 230.370 97.777,231.630 98.118,232.400 98.317 C 234.560 98.877,242.388 101.615,244.400 102.515 C 251.273 105.590,257.648 108.898,261.767 111.529 L 263.734 112.786 275.767 106.638 C 282.385 103.256,289.510 99.598,291.600 98.508 C 308.690 89.596,309.511 89.391,312.944 93.191 C 315.061 95.534,315.162 97.515,313.615 106.400 C 313.404 107.610,313.028 109.770,312.779 111.200 C 312.530 112.630,312.179 114.700,312.000 115.800 C 311.821 116.900,311.477 118.925,311.237 120.300 C 310.997 121.675,310.603 123.925,310.363 125.300 C 310.123 126.675,309.779 128.700,309.600 129.800 C 309.421 130.900,309.077 132.925,308.837 134.300 C 308.358 137.037,307.842 140.096,307.234 143.800 C 307.017 145.120,306.641 147.280,306.398 148.600 C 304.485 158.995,304.479 159.284,306.131 162.800 C 308.390 167.607,311.178 175.181,312.021 178.800 C 312.200 179.570,312.552 180.920,312.804 181.800 C 315.050 189.669,316.401 200.351,316.422 210.400 C 316.439 218.627,315.337 229.933,314.005 235.200 C 313.810 235.970,313.442 237.500,313.187 238.600 C 312.932 239.700,312.582 241.050,312.408 241.600 C 312.235 242.150,311.866 243.410,311.589 244.400 C 308.694 254.736,302.901 267.013,296.536 276.300 C 295.141 278.335,294.014 280.315,294.032 280.700 C 294.057 281.258,294.110 281.278,294.293 280.800 C 294.420 280.470,295.366 278.940,296.395 277.400 C 303.871 266.214,308.444 256.386,312.773 242.200 C 318.187 224.457,318.189 198.065,312.778 179.800 C 310.748 172.946,308.279 166.232,306.214 161.952 C 305.036 159.509,305.007 158.955,305.826 154.400 C 306.779 149.104,310.971 124.717,311.603 120.800 C 311.798 119.590,312.338 116.440,312.802 113.800 C 315.985 95.703,315.906 94.190,311.631 91.310 C 308.742 89.362,307.557 89.716,294.600 96.401 M348.800 91.325 C 348.800 91.394,349.385 91.979,350.100 92.625 L 351.400 93.800 350.225 92.500 C 349.130 91.288,348.800 91.016,348.800 91.325 M74.191 98.500 L 71.000 101.800 74.300 98.609 C 77.365 95.646,77.782 95.200,77.491 95.200 C 77.430 95.200,75.945 96.685,74.191 98.500 M329.200 100.200 C 329.946 100.970,330.647 101.600,330.757 101.600 C 330.867 101.600,330.346 100.970,329.600 100.200 C 328.854 99.430,328.153 98.800,328.043 98.800 C 327.933 98.800,328.454 99.430,329.200 100.200 M98.802 105.900 C 98.804 106.196,99.282 109.010,104.813 141.246 C 108.075 160.259,108.042 159.708,106.158 163.611 C 97.164 182.249,93.514 200.667,95.142 219.200 C 101.995 297.210,187.914 340.462,255.174 299.760 C 263.730 294.583,265.724 292.719,264.364 291.172 C 263.894 290.637,263.035 289.570,262.455 288.800 C 261.875 288.030,261.220 287.198,261.000 286.951 C 260.780 286.704,257.375 282.429,253.433 277.451 C 245.433 267.349,246.004 267.862,245.035 269.900 C 240.762 278.890,231.967 283.991,221.600 283.493 C 214.465 283.150,209.230 280.691,201.017 273.824 C 199.705 272.727,198.979 272.362,198.630 272.624 C 198.354 272.831,196.524 274.213,194.564 275.695 C 173.332 291.750,150.322 282.537,145.871 256.200 C 145.267 252.630,145.520 250.986,146.839 249.900 C 149.110 248.029,151.631 249.950,152.354 254.103 C 155.603 272.759,168.812 280.712,184.364 273.376 C 187.492 271.901,191.576 269.158,193.121 267.495 L 194.041 266.504 191.670 263.352 C 185.533 255.196,178.400 240.915,178.400 236.784 C 178.400 233.470,179.753 232.970,190.200 232.419 C 206.204 231.574,217.621 232.951,219.018 235.894 C 220.560 239.144,213.604 254.368,206.145 264.070 C 203.935 266.945,203.904 266.771,207.100 269.420 C 219.946 280.064,234.306 277.845,239.782 264.368 C 241.018 261.326,241.020 261.654,239.755 260.200 C 239.180 259.540,238.236 258.374,237.655 257.608 C 237.075 256.842,236.301 255.852,235.936 255.408 C 235.571 254.964,230.839 249.020,225.421 242.200 C 214.497 228.451,214.989 229.069,213.600 227.357 C 213.050 226.679,212.060 225.429,211.400 224.579 C 209.827 222.551,187.652 194.686,185.600 192.157 C 185.050 191.479,184.060 190.233,183.400 189.388 C 180.699 185.928,180.939 185.785,180.957 190.843 C 181.039 214.957,151.538 220.725,144.357 198.000 C 139.498 182.623,153.702 166.259,167.500 171.339 C 169.899 172.222,170.293 172.866,162.282 162.795 C 162.017 162.462,161.350 161.635,160.800 160.957 C 160.250 160.279,159.260 159.030,158.600 158.180 C 157.441 156.688,138.474 132.818,137.479 131.600 C 137.210 131.270,136.361 130.190,135.594 129.200 C 134.828 128.210,134.102 127.310,133.981 127.200 C 133.861 127.090,132.936 125.920,131.926 124.600 C 129.220 121.065,129.029 120.936,118.600 115.604 C 113.320 112.905,106.811 109.549,104.135 108.148 C 99.136 105.530,98.799 105.387,98.802 105.900 M195.600 106.263 C 189.069 106.492,179.834 107.888,173.200 109.650 C 168.331 110.943,161.600 113.281,161.600 113.678 C 161.600 114.019,163.535 116.665,164.706 117.925 C 164.984 118.224,165.704 119.125,166.306 119.927 C 166.908 120.728,167.699 121.748,168.064 122.192 C 168.429 122.636,173.161 128.580,178.579 135.400 C 189.503 149.149,189.011 148.531,190.400 150.243 C 190.950 150.921,191.940 152.170,192.600 153.020 C 194.270 155.171,213.241 179.030,215.200 181.443 C 216.395 182.915,218.415 185.482,219.073 186.365 C 219.690 187.193,220.126 186.690,220.778 184.400 C 223.022 176.516,230.716 170.400,238.389 170.400 C 254.636 170.400,263.363 191.633,252.609 205.000 C 249.265 209.157,247.244 210.364,240.472 212.250 C 239.950 212.395,240.641 213.628,242.458 215.800 C 242.827 216.240,247.561 222.180,252.979 229.000 C 258.398 235.820,263.051 241.670,263.321 242.000 C 263.590 242.330,264.439 243.406,265.206 244.390 C 265.972 245.375,266.780 246.388,267.000 246.643 C 267.220 246.897,271.540 252.339,276.600 258.735 C 281.660 265.132,285.938 270.373,286.107 270.383 C 286.674 270.415,291.108 263.265,293.777 258.016 C 308.580 228.904,309.009 196.247,294.982 166.200 C 292.566 161.025,292.513 162.240,296.055 141.631 C 301.574 109.509,301.890 107.579,301.642 107.434 C 301.509 107.356,296.000 110.070,289.400 113.465 C 260.011 128.582,263.789 127.534,256.394 122.623 C 239.951 111.704,216.956 105.516,195.600 106.263 M164.963 183.008 C 162.065 184.280,160.084 188.091,160.551 191.497 C 161.756 200.290,172.666 200.893,174.755 192.282 C 176.229 186.209,170.352 180.643,164.963 183.008 M240.903 182.975 C 235.193 186.133,235.536 195.375,241.453 197.848 C 248.720 200.884,254.650 190.224,248.888 184.484 C 246.776 182.380,243.200 181.704,240.903 182.975 M170.378 183.589 C 173.292 185.076,174.653 187.836,174.275 191.497 C 173.438 199.603,163.306 200.331,161.204 192.436 C 159.612 186.454,165.280 180.988,170.378 183.589 M246.720 183.362 C 254.453 187.386,249.861 200.500,241.797 197.420 C 236.090 195.241,235.610 186.874,241.000 183.544 C 242.430 182.661,245.203 182.573,246.720 183.362 M13.309 187.200 C 13.309 188.190,13.387 188.595,13.482 188.100 C 13.578 187.605,13.578 186.795,13.482 186.300 C 13.387 185.805,13.309 186.210,13.309 187.200 M388.520 188.400 C 388.520 189.610,388.595 190.105,388.687 189.500 C 388.778 188.895,388.778 187.905,388.687 187.300 C 388.595 186.695,388.520 187.190,388.520 188.400 M34.109 189.200 C 34.109 190.190,34.187 190.595,34.282 190.100 C 34.378 189.605,34.378 188.795,34.282 188.300 C 34.187 187.805,34.109 188.210,34.109 189.200 M367.714 190.600 C 367.717 191.700,367.795 192.103,367.887 191.495 C 367.979 190.886,367.977 189.986,367.882 189.495 C 367.787 189.003,367.711 189.500,367.714 190.600 M12.920 193.200 C 12.920 194.410,12.995 194.905,13.087 194.300 C 13.178 193.695,13.178 192.705,13.087 192.100 C 12.995 191.495,12.920 191.990,12.920 193.200 M33.714 194.600 C 33.717 195.700,33.795 196.103,33.887 195.495 C 33.979 194.886,33.977 193.986,33.882 193.495 C 33.787 193.003,33.711 193.500,33.714 194.600 M33.714 205.400 C 33.717 206.500,33.795 206.903,33.887 206.295 C 33.979 205.686,33.977 204.786,33.882 204.295 C 33.787 203.803,33.711 204.300,33.714 205.400 M12.920 206.800 C 12.920 208.010,12.995 208.505,13.087 207.900 C 13.178 207.295,13.178 206.305,13.087 205.700 C 12.995 205.095,12.920 205.590,12.920 206.800 M367.714 209.400 C 367.717 210.500,367.795 210.903,367.887 210.295 C 367.979 209.686,367.977 208.786,367.882 208.295 C 367.787 207.803,367.711 208.300,367.714 209.400 M34.109 210.800 C 34.109 211.790,34.187 212.195,34.282 211.700 C 34.378 211.205,34.378 210.395,34.282 209.900 C 34.187 209.405,34.109 209.810,34.109 210.800 M388.520 211.600 C 388.520 212.810,388.595 213.305,388.687 212.700 C 388.778 212.095,388.778 211.105,388.687 210.500 C 388.595 209.895,388.520 210.390,388.520 211.600 M13.309 212.800 C 13.309 213.790,13.387 214.195,13.482 213.700 C 13.578 213.205,13.578 212.395,13.482 211.900 C 13.387 211.405,13.309 211.810,13.309 212.800 M74.200 301.600 C 75.950 303.360,77.471 304.800,77.581 304.800 C 77.691 304.800,76.350 303.360,74.600 301.600 C 72.850 299.840,71.329 298.400,71.219 298.400 C 71.109 298.400,72.450 299.840,74.200 301.600 M329.178 299.900 L 327.800 301.400 329.300 300.022 C 330.696 298.738,330.984 298.400,330.678 298.400 C 330.612 298.400,329.937 299.075,329.178 299.900 M349.775 307.700 L 348.600 309.000 349.900 307.825 C 350.615 307.179,351.200 306.594,351.200 306.525 C 351.200 306.216,350.870 306.488,349.775 307.700 M337.995 320.700 L 332.200 326.600 338.100 320.805 C 343.581 315.422,344.181 314.800,343.895 314.800 C 343.837 314.800,341.182 317.455,337.995 320.700 M90.400 316.925 C 90.400 316.994,90.985 317.579,91.700 318.225 L 93.000 319.400 91.825 318.100 C 90.730 316.888,90.400 316.616,90.400 316.925 M328.975 329.300 L 327.800 330.600 329.100 329.425 C 329.815 328.779,330.400 328.194,330.400 328.125 C 330.400 327.816,330.070 328.088,328.975 329.300 M74.400 330.525 C 74.400 330.594,74.985 331.179,75.700 331.825 L 77.000 333.000 75.825 331.700 C 74.730 330.488,74.400 330.216,74.400 330.525 M188.905 355.487 C 189.514 355.579,190.414 355.577,190.905 355.482 C 191.397 355.387,190.900 355.311,189.800 355.314 C 188.700 355.317,188.297 355.395,188.905 355.487 M210.900 355.487 C 211.505 355.578,212.495 355.578,213.100 355.487 C 213.705 355.395,213.210 355.320,212.000 355.320 C 210.790 355.320,210.295 355.395,210.900 355.487 M194.700 355.882 C 195.195 355.978,196.005 355.978,196.500 355.882 C 196.995 355.787,196.590 355.709,195.600 355.709 C 194.610 355.709,194.205 355.787,194.700 355.882 M205.305 355.887 C 205.914 355.979,206.814 355.977,207.305 355.882 C 207.797 355.787,207.300 355.711,206.200 355.714 C 205.100 355.717,204.697 355.795,205.305 355.887 M186.505 376.287 C 187.114 376.379,188.014 376.377,188.505 376.282 C 188.997 376.187,188.500 376.111,187.400 376.114 C 186.300 376.117,185.897 376.195,186.505 376.287 M213.300 376.287 C 213.905 376.378,214.895 376.378,215.500 376.287 C 216.105 376.195,215.610 376.120,214.400 376.120 C 213.190 376.120,212.695 376.195,213.300 376.287 M192.707 376.690 C 193.426 376.779,194.506 376.777,195.107 376.686 C 195.708 376.595,195.120 376.522,193.800 376.524 C 192.480 376.526,191.988 376.601,192.707 376.690 M206.900 376.687 C 207.505 376.778,208.495 376.778,209.100 376.687 C 209.705 376.595,209.210 376.520,208.000 376.520 C 206.790 376.520,206.295 376.595,206.900 376.687 " stroke="none" fill="#b3b3b3" fill-rule="evenodd"></path><path id="path3" d="M196.500 23.476 C 196.885 23.576,197.515 23.576,197.900 23.476 C 198.285 23.375,197.970 23.293,197.200 23.293 C 196.430 23.293,196.115 23.375,196.500 23.476 M204.100 23.476 C 204.485 23.576,205.115 23.576,205.500 23.476 C 205.885 23.375,205.570 23.293,204.800 23.293 C 204.030 23.293,203.715 23.375,204.100 23.476 M189.700 23.876 C 190.085 23.976,190.715 23.976,191.100 23.876 C 191.485 23.775,191.170 23.693,190.400 23.693 C 189.630 23.693,189.315 23.775,189.700 23.876 M91.700 89.476 C 92.085 89.576,92.715 89.576,93.100 89.476 C 93.485 89.375,93.170 89.293,92.400 89.293 C 91.630 89.293,91.315 89.375,91.700 89.476 M307.505 91.083 C 308.002 91.179,308.722 91.175,309.105 91.075 C 309.487 90.975,309.080 90.896,308.200 90.901 C 307.320 90.905,307.007 90.987,307.505 91.083 M313.455 94.200 C 314.380 95.779,314.400 95.803,314.400 95.311 C 314.400 95.079,314.029 94.464,313.576 93.944 L 312.753 93.000 313.455 94.200 M196.080 93.898 C 197.994 93.971,201.234 93.971,203.280 93.898 C 205.326 93.826,203.760 93.766,199.800 93.765 C 195.840 93.765,194.166 93.824,196.080 93.898 M208.500 94.276 C 208.885 94.376,209.515 94.376,209.900 94.276 C 210.285 94.175,209.970 94.093,209.200 94.093 C 208.430 94.093,208.115 94.175,208.500 94.276 M185.300 94.676 C 185.685 94.776,186.315 94.776,186.700 94.676 C 187.085 94.575,186.770 94.493,186.000 94.493 C 185.230 94.493,184.915 94.575,185.300 94.676 M178.800 95.600 C 177.996 95.857,177.957 95.923,178.600 95.932 C 179.040 95.938,179.760 95.789,180.200 95.600 C 181.219 95.162,180.168 95.162,178.800 95.600 M85.628 96.633 C 85.644 97.275,85.816 98.160,86.010 98.600 C 86.247 99.134,86.286 98.802,86.127 97.600 C 85.846 95.480,85.588 94.980,85.628 96.633 M109.700 96.179 C 110.213 96.831,110.031 97.185,109.300 96.957 C 108.782 96.796,108.808 96.865,109.400 97.223 C 110.953 98.162,112.519 99.854,116.597 105.000 C 129.866 121.742,129.369 120.772,122.955 117.423 C 120.602 116.194,118.596 115.271,118.496 115.370 C 118.397 115.470,120.629 116.716,123.457 118.138 C 128.596 120.723,129.688 121.583,132.420 125.200 C 133.168 126.190,133.874 127.090,133.990 127.200 C 134.105 127.310,134.828 128.210,135.594 129.200 C 136.361 130.190,137.210 131.270,137.479 131.600 C 138.474 132.818,157.441 156.688,158.600 158.180 C 159.260 159.030,160.250 160.279,160.800 160.957 C 161.350 161.635,162.017 162.462,162.282 162.795 C 170.293 172.866,169.899 172.222,167.500 171.339 C 163.588 169.899,157.434 170.657,153.282 173.090 C 149.982 175.024,144.764 181.406,144.807 183.456 C 144.811 183.645,145.359 182.810,146.024 181.600 C 150.844 172.835,159.754 168.936,167.994 171.987 C 169.201 172.434,170.229 172.800,170.278 172.800 C 170.423 172.800,178.154 182.482,179.062 183.800 C 179.517 184.460,180.031 185.720,180.204 186.600 C 180.479 187.998,180.550 188.079,180.767 187.242 C 181.010 186.306,181.044 186.320,182.187 187.842 C 182.831 188.699,183.457 189.490,183.579 189.600 C 183.700 189.710,184.428 190.610,185.194 191.600 C 185.961 192.590,186.810 193.670,187.079 194.000 C 188.144 195.303,210.275 223.129,211.400 224.579 C 212.060 225.429,213.050 226.679,213.600 227.357 C 214.989 229.069,214.497 228.451,225.421 242.200 C 230.839 249.020,235.571 254.964,235.936 255.408 C 236.301 255.852,237.075 256.842,237.655 257.608 C 238.236 258.374,239.180 259.540,239.755 260.200 C 241.020 261.654,241.018 261.326,239.782 264.368 C 237.830 269.170,235.111 272.376,231.431 274.209 C 230.338 274.754,229.720 275.200,230.059 275.200 C 232.676 275.200,238.029 269.748,239.865 265.213 C 241.285 261.705,241.648 261.769,244.628 266.048 L 245.637 267.496 244.624 269.710 C 237.304 285.713,216.944 287.771,201.906 274.027 C 199.246 271.596,199.002 271.573,196.756 273.532 C 193.136 276.689,187.783 279.875,183.491 281.426 C 182.441 281.805,181.647 282.180,181.725 282.259 C 182.477 283.010,189.928 279.200,194.564 275.695 C 196.524 274.213,198.354 272.831,198.630 272.624 C 198.979 272.362,199.705 272.727,201.017 273.824 C 209.230 280.691,214.465 283.150,221.600 283.493 C 231.967 283.991,240.762 278.890,245.035 269.900 C 246.004 267.862,245.433 267.349,253.433 277.451 C 257.375 282.429,260.780 286.704,261.000 286.951 C 261.220 287.198,261.875 288.030,262.455 288.800 C 263.035 289.570,263.894 290.637,264.364 291.172 C 265.502 292.466,265.394 292.660,262.173 295.102 C 256.474 299.421,247.948 304.162,239.600 307.653 C 237.070 308.711,235.195 309.582,235.434 309.589 C 236.012 309.604,242.694 306.868,246.200 305.181 C 251.513 302.624,260.823 296.892,264.131 294.141 C 265.809 292.744,266.001 292.856,269.436 297.216 C 273.347 302.182,273.235 301.576,270.614 303.554 C 269.396 304.474,268.400 305.316,268.400 305.426 C 268.400 305.536,269.406 304.867,270.635 303.939 C 272.661 302.409,272.950 302.301,273.731 302.789 C 274.453 303.240,274.404 303.075,273.425 301.763 C 271.109 298.658,268.572 295.446,267.164 293.839 C 265.599 292.053,251.169 273.918,245.000 265.985 C 243.680 264.287,239.441 258.961,235.580 254.149 C 222.800 238.222,182.239 187.172,177.800 181.428 C 176.480 179.720,174.500 177.206,173.400 175.841 C 163.224 163.220,131.049 122.837,128.783 119.844 C 125.725 115.802,125.512 115.530,121.204 110.141 C 118.892 107.248,115.875 103.468,114.501 101.741 C 113.127 100.013,111.417 97.969,110.701 97.199 C 109.985 96.428,109.535 95.969,109.700 96.179 M314.514 98.200 C 314.517 99.300,314.595 99.703,314.687 99.095 C 314.779 98.486,314.777 97.586,314.682 97.095 C 314.587 96.603,314.511 97.100,314.514 98.200 M86.468 101.800 C 86.462 102.240,86.611 102.960,86.800 103.400 C 87.238 104.419,87.238 103.368,86.800 102.000 C 86.543 101.196,86.477 101.157,86.468 101.800 M314.049 102.200 C 314.016 102.640,313.896 103.450,313.783 104.000 L 313.577 105.000 314.006 104.019 C 314.242 103.479,314.361 102.669,314.272 102.219 C 314.113 101.421,314.107 101.421,314.049 102.200 M152.800 103.575 C 152.800 103.782,154.443 105.987,156.452 108.475 C 162.474 115.938,186.903 146.567,198.024 160.600 C 199.070 161.920,204.308 168.521,209.663 175.268 C 215.018 182.016,220.750 189.280,222.400 191.410 C 225.247 195.086,231.345 202.774,236.600 209.313 C 255.711 233.092,270.556 251.769,289.480 275.845 C 293.421 280.859,294.411 281.930,294.138 280.883 C 294.010 280.395,294.149 279.682,294.446 279.298 C 294.941 278.659,294.915 278.660,294.147 279.313 C 293.292 280.040,292.340 279.069,286.707 271.724 C 286.464 271.407,286.993 270.274,288.295 268.324 C 291.265 263.874,296.818 253.556,296.791 252.538 C 296.786 252.352,295.383 254.900,293.673 258.200 C 290.660 264.017,286.674 270.418,286.088 270.383 C 285.930 270.373,281.660 265.132,276.600 258.735 C 271.540 252.339,267.220 246.897,267.000 246.643 C 266.780 246.388,265.972 245.375,265.206 244.390 C 264.439 243.406,263.590 242.330,263.321 242.000 C 263.051 241.670,258.398 235.820,252.979 229.000 C 247.561 222.180,242.827 216.240,242.458 215.800 C 240.641 213.628,239.950 212.395,240.472 212.250 C 245.675 210.801,247.553 209.948,249.831 208.000 C 251.470 206.599,254.574 202.840,254.310 202.577 C 254.190 202.456,253.720 202.959,253.266 203.694 C 251.114 207.176,246.533 210.315,242.108 211.340 C 239.052 212.048,239.420 212.302,234.508 206.088 C 232.139 203.089,227.981 197.839,225.269 194.421 L 220.338 188.205 220.549 186.403 C 220.669 185.370,220.635 185.015,220.469 185.570 C 220.069 186.903,219.430 187.011,218.683 185.871 C 218.338 185.344,217.818 184.658,217.528 184.346 C 217.237 184.035,216.372 182.975,215.606 181.990 C 214.839 181.006,213.990 179.930,213.721 179.600 C 212.726 178.382,193.759 154.512,192.600 153.020 C 191.940 152.170,190.950 150.921,190.400 150.243 C 189.011 148.531,189.503 149.149,178.579 135.400 C 173.161 128.580,168.429 122.636,168.064 122.192 C 167.699 121.748,166.908 120.728,166.306 119.927 C 165.704 119.125,164.984 118.224,164.706 117.925 C 162.155 115.179,161.213 113.423,162.100 113.065 C 162.375 112.954,162.060 112.841,161.400 112.815 C 160.092 112.762,153.829 105.389,153.829 103.903 C 153.829 103.516,153.597 103.200,153.314 103.200 C 153.031 103.200,152.800 103.369,152.800 103.575 M98.428 106.300 C 98.444 106.905,98.623 107.760,98.827 108.200 C 99.089 108.767,99.129 108.505,98.963 107.300 C 98.686 105.284,98.771 105.268,101.566 106.808 C 102.757 107.465,103.810 107.923,103.906 107.827 C 104.112 107.622,99.415 105.200,98.811 105.200 C 98.585 105.200,98.413 105.695,98.428 106.300 M193.800 105.982 C 191.958 106.118,194.505 106.222,199.800 106.227 C 206.182 106.233,207.959 106.151,205.600 105.958 C 201.705 105.639,198.369 105.646,193.800 105.982 M185.400 106.800 L 183.800 107.086 185.200 107.114 C 185.970 107.129,187.410 106.997,188.400 106.820 L 190.200 106.500 188.600 106.507 C 187.720 106.511,186.280 106.642,185.400 106.800 M211.400 106.818 C 214.244 107.261,216.388 107.230,214.200 106.777 C 213.320 106.595,211.880 106.460,211.000 106.476 C 209.433 106.506,209.441 106.513,211.400 106.818 M252.800 106.579 C 252.800 106.689,253.340 107.059,254.000 107.400 C 254.660 107.741,255.200 107.931,255.200 107.821 C 255.200 107.711,254.660 107.341,254.000 107.000 C 253.340 106.659,252.800 106.469,252.800 106.579 M294.400 110.433 C 260.026 128.170,263.651 126.889,258.111 123.252 C 253.075 119.945,244.308 115.182,243.304 115.208 C 243.137 115.212,245.340 116.438,248.200 117.933 C 251.060 119.427,254.823 121.594,256.563 122.747 C 262.641 126.778,263.266 126.850,268.566 124.144 C 270.564 123.123,278.629 118.985,286.486 114.948 C 302.696 106.621,301.822 106.986,301.702 108.600 C 301.627 109.611,301.671 109.674,301.978 109.000 C 303.333 106.035,302.687 106.157,294.400 110.433 M177.400 108.216 C 171.853 109.498,170.374 109.893,170.102 110.165 C 169.747 110.520,170.446 110.449,172.003 109.972 C 172.771 109.737,175.740 109.032,178.600 108.407 C 181.460 107.782,183.260 107.275,182.600 107.281 C 181.940 107.286,179.600 107.707,177.400 108.216 M217.400 107.600 C 219.092 108.031,220.544 108.031,219.200 107.600 C 218.650 107.424,217.750 107.283,217.200 107.287 C 216.302 107.294,216.322 107.326,217.400 107.600 M104.400 108.197 C 104.400 108.306,107.145 109.764,110.500 111.438 C 113.855 113.111,116.420 114.306,116.200 114.093 C 115.381 113.300,104.400 107.814,104.400 108.197 M221.400 108.400 C 222.060 108.568,222.960 108.714,223.400 108.725 L 224.200 108.744 223.400 108.400 C 222.960 108.211,222.060 108.065,221.400 108.075 L 220.200 108.095 221.400 108.400 M228.049 109.984 C 230.165 110.603,233.464 111.687,235.378 112.392 C 237.293 113.097,238.940 113.593,239.040 113.494 C 239.408 113.126,226.043 108.761,224.757 108.829 C 224.451 108.846,225.932 109.365,228.049 109.984 M99.228 110.833 C 99.244 111.585,99.420 112.560,99.620 113.000 C 99.865 113.539,99.905 113.146,99.741 111.800 C 99.451 109.419,99.189 108.924,99.228 110.833 M165.423 111.523 C 163.895 112.087,162.815 112.600,163.023 112.663 C 163.230 112.726,164.840 112.252,166.600 111.611 C 168.360 110.970,169.440 110.456,169.000 110.471 C 168.560 110.485,166.950 110.958,165.423 111.523 M266.000 111.600 C 264.790 112.239,263.941 112.771,264.113 112.781 C 264.538 112.807,268.400 110.836,268.400 110.593 C 268.400 110.326,268.455 110.303,266.000 111.600 M301.264 111.050 C 301.229 111.517,301.105 112.508,300.989 113.250 C 300.796 114.486,300.815 114.517,301.208 113.614 C 301.445 113.072,301.568 112.082,301.483 111.414 C 301.391 110.697,301.302 110.548,301.264 111.050 M240.938 114.447 C 241.784 114.893,242.568 115.165,242.681 115.052 C 242.876 114.857,240.180 113.580,239.651 113.618 C 239.513 113.627,240.092 114.000,240.938 114.447 M100.040 115.433 C 100.062 116.075,100.233 117.050,100.420 117.600 C 100.649 118.274,100.684 117.949,100.528 116.600 C 100.269 114.350,99.979 113.659,100.040 115.433 M300.255 117.055 C 300.113 118.086,300.074 119.008,300.169 119.102 C 300.263 119.196,300.465 118.439,300.618 117.418 C 300.771 116.398,300.810 115.476,300.704 115.371 C 300.598 115.265,300.396 116.023,300.255 117.055 M88.856 116.000 C 88.856 116.330,89.011 116.960,89.200 117.400 C 89.417 117.904,89.544 117.978,89.544 117.600 C 89.544 117.270,89.389 116.640,89.200 116.200 C 88.983 115.696,88.856 115.622,88.856 116.000 M311.450 117.250 C 311.117 118.917,311.440 119.240,311.800 117.600 C 311.952 116.909,311.993 116.259,311.891 116.158 C 311.789 116.056,311.591 116.547,311.450 117.250 M100.828 120.033 C 100.844 120.785,101.012 121.760,101.203 122.200 C 101.426 122.715,101.467 122.287,101.318 121.000 C 101.044 118.622,100.789 118.119,100.828 120.033 M299.659 120.600 C 299.620 121.260,299.496 122.250,299.383 122.800 L 299.177 123.800 299.608 122.814 C 299.844 122.272,299.968 121.282,299.883 120.614 L 299.728 119.400 299.659 120.600 M101.628 124.833 C 101.644 125.585,101.820 126.560,102.020 127.000 C 102.265 127.539,102.305 127.146,102.141 125.800 C 101.851 123.419,101.589 122.924,101.628 124.833 M298.864 125.050 C 298.829 125.517,298.705 126.508,298.589 127.250 C 298.396 128.486,298.415 128.517,298.808 127.614 C 299.045 127.072,299.168 126.082,299.083 125.414 C 298.991 124.697,298.902 124.548,298.864 125.050 M102.440 129.433 C 102.462 130.075,102.633 131.050,102.820 131.600 C 103.049 132.274,103.084 131.949,102.928 130.600 C 102.669 128.350,102.379 127.659,102.440 129.433 M297.855 131.055 C 297.713 132.086,297.674 133.008,297.769 133.102 C 297.863 133.196,298.065 132.439,298.218 131.418 C 298.371 130.398,298.410 129.476,298.304 129.371 C 298.198 129.265,297.996 130.023,297.855 131.055 M91.268 130.000 C 91.288 131.039,91.918 132.746,91.932 131.800 C 91.938 131.360,91.789 130.640,91.600 130.200 C 91.389 129.710,91.261 129.632,91.268 130.000 M309.029 131.429 C 308.881 132.015,308.838 132.572,308.932 132.666 C 309.027 132.760,309.224 132.358,309.371 131.771 C 309.519 131.185,309.562 130.628,309.468 130.534 C 309.373 130.440,309.176 130.842,309.029 131.429 M103.286 134.000 C 103.283 134.770,103.424 135.850,103.600 136.400 C 104.050 137.804,104.065 136.337,103.623 134.200 L 103.292 132.600 103.286 134.000 M297.264 134.250 C 297.229 134.718,297.105 135.708,296.989 136.450 C 296.796 137.686,296.815 137.717,297.208 136.814 C 297.445 136.272,297.568 135.282,297.483 134.614 C 297.391 133.897,297.302 133.748,297.264 134.250 M104.086 138.800 C 104.083 139.570,104.224 140.650,104.400 141.200 C 104.850 142.604,104.865 141.137,104.423 139.000 L 104.092 137.400 104.086 138.800 M296.464 139.050 C 296.429 139.518,296.305 140.508,296.189 141.250 C 295.996 142.486,296.015 142.517,296.408 141.614 C 296.645 141.072,296.768 140.082,296.683 139.414 C 296.591 138.697,296.502 138.548,296.464 139.050 M104.893 143.400 C 104.894 144.060,105.032 145.140,105.200 145.800 C 105.623 147.463,105.642 145.826,105.223 143.800 C 104.945 142.455,104.892 142.391,104.893 143.400 M295.418 145.018 C 295.265 146.039,295.230 146.963,295.340 147.073 C 295.450 147.183,295.665 146.439,295.818 145.418 C 295.971 144.398,296.006 143.473,295.896 143.363 C 295.786 143.253,295.571 143.998,295.418 145.018 M105.637 147.800 C 105.622 148.240,105.966 150.580,106.400 153.000 C 107.486 159.052,107.434 159.897,105.750 163.498 C 103.194 168.969,102.363 170.896,102.502 171.035 C 102.907 171.441,107.600 160.370,107.600 159.008 C 107.600 156.555,105.705 145.734,105.637 147.800 M294.646 149.547 C 294.489 150.727,294.446 151.779,294.550 151.883 C 294.817 152.150,295.322 148.564,295.107 147.925 C 295.011 147.636,294.803 148.366,294.646 149.547 M293.846 154.347 C 293.689 155.527,293.646 156.579,293.750 156.683 C 294.017 156.950,294.522 153.364,294.307 152.725 C 294.211 152.436,294.003 153.166,293.846 154.347 M178.020 159.429 C 172.456 163.897,171.936 164.507,172.881 165.453 C 173.498 166.069,174.242 165.603,179.563 161.266 C 181.494 159.693,181.545 159.924,180.197 164.169 C 179.646 165.906,179.259 167.393,179.338 167.471 C 179.417 167.550,180.112 165.716,180.882 163.395 C 182.364 158.931,182.345 158.299,180.773 159.726 C 178.060 162.187,173.496 165.583,173.170 165.381 C 172.361 164.882,172.906 164.035,175.191 162.240 C 176.505 161.207,177.815 160.145,178.100 159.881 C 178.386 159.616,179.425 158.777,180.410 158.015 C 181.394 157.253,182.260 156.488,182.333 156.315 C 182.546 155.812,183.861 155.951,184.339 156.526 C 184.660 156.914,184.578 157.627,184.028 159.226 C 182.238 164.433,180.782 169.315,180.965 169.498 C 181.125 169.659,184.022 167.629,184.800 166.810 C 186.162 165.378,189.357 163.174,189.815 163.351 C 190.768 163.716,190.483 164.540,189.073 165.500 C 188.346 165.994,187.399 166.714,186.968 167.100 C 179.538 173.741,177.987 174.109,178.961 169.000 C 179.087 168.340,178.886 168.668,178.515 169.729 C 177.793 171.798,178.059 172.877,179.356 173.132 C 180.207 173.299,190.600 164.961,190.600 164.111 C 190.600 162.546,189.297 162.594,187.324 164.230 C 183.799 167.153,181.965 168.498,181.771 168.304 C 181.665 168.198,182.387 165.615,183.376 162.565 C 185.029 157.463,185.125 156.946,184.577 156.109 C 183.731 154.817,183.820 154.772,178.020 159.429 M293.194 158.400 C 292.922 161.158,294.293 166.640,295.063 165.870 C 295.171 165.763,294.933 165.073,294.536 164.337 C 294.124 163.576,293.709 161.707,293.572 160.000 C 293.421 158.109,293.281 157.518,293.194 158.400 M295.217 166.700 C 295.239 167.101,296.762 169.870,296.783 169.549 C 296.811 169.135,295.605 166.400,295.395 166.400 C 295.288 166.400,295.208 166.535,295.217 166.700 M186.129 171.409 C 182.689 173.471,181.753 177.180,184.020 179.762 C 185.111 181.004,187.774 182.360,188.229 181.904 C 188.326 181.807,187.689 181.514,186.813 181.251 C 181.589 179.686,182.571 172.030,188.130 170.987 C 194.381 169.814,196.030 177.859,190.141 180.799 C 189.293 181.222,188.888 181.575,189.240 181.584 C 190.337 181.611,193.234 179.216,193.831 177.788 C 195.901 172.834,190.800 168.609,186.129 171.409 M233.596 171.149 C 227.943 172.958,222.435 178.417,221.033 183.600 C 220.884 184.150,221.406 183.292,222.192 181.693 C 226.662 172.601,239.325 167.714,245.910 172.540 C 246.190 172.746,246.520 172.813,246.644 172.689 C 248.209 171.124,237.590 169.870,233.596 171.149 M298.313 173.819 C 298.684 174.820,299.039 175.482,299.103 175.291 C 299.231 174.906,298.093 172.000,297.814 172.000 C 297.717 172.000,297.942 172.819,298.313 173.819 M187.800 172.866 C 184.714 174.568,183.886 177.191,185.858 179.019 C 187.466 180.509,189.292 180.033,191.352 177.584 C 193.714 174.777,190.961 171.122,187.800 172.866 M191.200 173.600 C 193.565 175.965,189.139 180.904,186.451 178.899 C 184.557 177.487,184.828 175.353,187.098 173.811 C 188.891 172.592,190.129 172.529,191.200 173.600 M248.000 173.475 C 250.186 175.026,253.142 178.457,254.428 180.936 C 255.173 182.374,255.849 183.484,255.930 183.403 C 256.749 182.585,250.786 174.789,248.342 173.483 C 247.087 172.811,247.065 172.811,248.000 173.475 M100.615 175.415 C 100.230 176.424,100.004 177.337,100.113 177.446 C 100.221 177.555,100.600 176.793,100.954 175.754 C 101.790 173.299,101.525 173.034,100.615 175.415 M195.714 178.281 C 195.612 178.545,195.639 178.940,195.774 179.158 C 195.909 179.376,194.890 180.494,193.510 181.641 C 192.129 182.789,190.781 184.014,190.513 184.364 C 189.043 186.283,191.481 190.691,193.111 189.061 C 193.602 188.570,193.589 188.355,193.015 187.480 C 192.188 186.216,192.533 185.589,195.206 183.500 C 197.441 181.754,197.478 181.746,198.612 182.811 C 200.203 184.306,201.610 182.758,200.138 181.131 C 199.521 180.450,199.524 180.347,200.179 179.623 C 201.346 178.334,200.780 177.809,198.217 177.804 C 196.777 177.802,195.828 177.982,195.714 178.281 M99.449 178.615 C 99.312 178.973,99.215 179.566,99.234 179.933 C 99.253 180.300,99.427 180.069,99.621 179.420 C 99.998 178.158,99.865 177.533,99.449 178.615 M200.134 178.268 C 200.281 178.415,200.091 178.878,199.711 179.298 C 199.057 180.021,199.058 180.126,199.728 181.293 C 200.617 182.844,199.957 183.887,198.974 182.484 C 198.059 181.179,197.259 181.381,194.494 183.618 C 191.968 185.662,191.486 186.676,192.600 187.600 C 193.431 188.290,193.350 188.800,192.409 188.800 C 189.379 188.800,189.925 185.200,193.400 182.272 C 195.225 180.734,196.168 179.657,196.109 179.179 C 196.035 178.588,196.347 178.415,197.709 178.292 C 198.639 178.208,199.505 178.108,199.633 178.070 C 199.762 178.031,199.987 178.120,200.134 178.268 M300.834 181.200 C 300.846 181.530,301.011 182.160,301.200 182.600 L 301.544 183.400 301.566 182.600 C 301.578 182.160,301.413 181.530,301.200 181.200 C 300.855 180.667,300.815 180.667,300.834 181.200 M243.100 182.282 C 243.595 182.378,244.405 182.378,244.900 182.282 C 245.395 182.187,244.990 182.109,244.000 182.109 C 243.010 182.109,242.605 182.187,243.100 182.282 M97.800 184.400 C 97.648 185.091,97.607 185.741,97.709 185.842 C 97.811 185.944,98.009 185.453,98.150 184.750 C 98.483 183.083,98.160 182.760,97.800 184.400 M162.575 184.500 L 161.400 185.800 162.700 184.625 C 163.912 183.530,164.184 183.200,163.875 183.200 C 163.806 183.200,163.221 183.785,162.575 184.500 M301.634 184.000 C 301.646 184.330,301.811 184.960,302.000 185.400 L 302.344 186.200 302.366 185.400 C 302.378 184.960,302.213 184.330,302.000 184.000 C 301.655 183.467,301.615 183.467,301.634 184.000 M144.229 185.029 C 144.081 185.615,144.051 186.184,144.161 186.294 C 144.271 186.404,144.481 186.015,144.629 185.429 C 144.776 184.842,144.806 184.273,144.696 184.163 C 144.586 184.053,144.376 184.442,144.229 185.029 M256.034 184.600 C 256.022 185.040,256.187 185.670,256.400 186.000 C 256.914 186.795,256.914 185.796,256.400 184.600 L 256.056 183.800 256.034 184.600 M97.056 187.284 C 96.921 187.788,96.827 188.560,96.846 189.000 C 96.865 189.440,97.045 189.098,97.246 188.240 C 97.636 186.578,97.470 185.740,97.056 187.284 M313.844 187.400 C 314.173 188.871,314.402 189.190,314.394 188.167 C 314.391 187.745,314.205 187.130,313.982 186.800 C 313.685 186.362,313.648 186.524,313.844 187.400 M143.495 189.300 C 143.376 190.675,143.408 192.790,143.566 194.000 C 143.797 195.767,143.860 195.275,143.884 191.500 C 143.918 186.224,143.812 185.626,143.495 189.300 M256.905 191.200 C 256.901 194.732,256.969 195.331,257.196 193.780 C 257.360 192.670,257.362 190.600,257.201 189.180 C 256.945 186.916,256.909 187.164,256.905 191.200 M302.446 187.200 C 302.465 187.530,302.624 188.250,302.800 188.800 L 303.120 189.800 303.154 188.800 C 303.173 188.250,303.013 187.530,302.800 187.200 C 302.455 186.667,302.416 186.667,302.446 187.200 M174.456 187.600 C 174.456 187.930,174.611 188.560,174.800 189.000 C 175.017 189.504,175.144 189.578,175.144 189.200 C 175.144 188.870,174.989 188.240,174.800 187.800 C 174.583 187.296,174.456 187.222,174.456 187.600 M13.293 190.000 C 13.293 190.770,13.375 191.085,13.476 190.700 C 13.576 190.315,13.576 189.685,13.476 189.300 C 13.375 188.915,13.293 189.230,13.293 190.000 M207.800 189.633 C 205.822 190.397,206.413 190.413,209.280 189.674 C 210.094 189.465,210.859 189.392,210.980 189.513 C 211.330 189.863,211.235 191.403,210.838 191.820 C 210.638 192.029,210.098 192.875,209.638 193.700 C 209.177 194.525,208.440 195.830,208.000 196.600 C 207.560 197.370,206.819 198.675,206.353 199.500 C 205.088 201.740,203.992 203.200,203.573 203.200 C 202.944 203.200,203.158 201.700,204.000 200.200 C 205.120 198.206,205.014 197.658,203.092 195.504 L 201.400 193.608 199.486 194.256 C 197.086 195.069,197.265 195.393,199.748 194.730 L 201.603 194.233 202.787 195.617 C 204.529 197.651,204.612 198.245,203.450 200.379 C 202.359 202.384,202.689 204.035,204.074 203.504 C 204.556 203.319,209.087 195.792,211.397 191.340 C 212.609 189.004,211.184 188.328,207.800 189.633 M236.501 190.200 C 236.505 191.080,236.587 191.393,236.683 190.895 C 236.779 190.398,236.775 189.678,236.675 189.295 C 236.575 188.913,236.496 189.320,236.501 190.200 M160.028 190.433 C 160.044 191.185,160.212 192.160,160.403 192.600 C 160.626 193.115,160.667 192.687,160.518 191.400 C 160.244 189.022,159.989 188.519,160.028 190.433 M180.924 191.400 C 180.926 192.720,181.001 193.212,181.090 192.493 C 181.179 191.774,181.177 190.694,181.086 190.093 C 180.995 189.492,180.922 190.080,180.924 191.400 M96.276 190.810 C 96.130 191.355,96.027 192.250,96.046 192.800 C 96.071 193.518,96.184 193.357,96.449 192.227 C 96.855 190.495,96.700 189.225,96.276 190.810 M204.600 190.610 C 204.380 190.691,202.345 191.324,200.077 192.017 C 195.969 193.272,194.691 194.481,196.800 195.119 C 197.284 195.265,197.304 195.198,196.900 194.770 C 195.922 193.733,195.965 193.708,202.100 191.796 C 204.025 191.196,205.600 190.637,205.600 190.553 C 205.600 190.375,205.172 190.400,204.600 190.610 M303.473 192.000 C 303.604 192.990,303.776 193.875,303.856 193.967 C 304.157 194.314,303.928 191.764,303.590 191.000 C 303.353 190.466,303.314 190.798,303.473 192.000 M206.200 192.215 C 203.594 193.176,203.433 193.573,205.002 195.168 C 206.152 196.338,206.635 196.053,207.998 193.403 C 209.155 191.154,209.127 191.136,206.200 192.215 M207.200 194.000 C 206.265 195.833,205.894 195.954,205.023 194.711 C 204.180 193.508,204.226 193.330,205.500 192.865 C 207.822 192.017,208.113 192.211,207.200 194.000 M248.825 196.169 L 247.450 197.800 249.005 196.313 C 249.860 195.496,250.479 194.762,250.380 194.683 C 250.281 194.603,249.581 195.272,248.825 196.169 M95.453 196.036 C 95.314 196.731,95.221 197.773,95.247 198.350 C 95.272 198.928,95.455 198.427,95.652 197.239 C 96.037 194.921,95.873 193.934,95.453 196.036 M180.432 195.286 C 180.061 203.334,171.706 211.159,162.600 211.986 L 159.400 212.276 161.938 212.338 C 168.417 212.496,174.743 208.616,178.353 202.271 C 179.648 199.995,180.976 195.867,180.662 195.092 C 180.545 194.802,180.450 194.882,180.432 195.286 M304.269 197.000 C 304.396 198.320,304.568 199.475,304.650 199.567 C 304.941 199.890,304.716 196.586,304.379 195.600 C 304.158 194.952,304.120 195.445,304.269 197.000 M144.056 196.800 C 144.056 197.130,144.211 197.760,144.400 198.200 C 144.617 198.704,144.744 198.778,144.744 198.400 C 144.744 198.070,144.589 197.440,144.400 197.000 C 144.183 196.496,144.056 196.422,144.056 196.800 M163.944 197.576 C 164.464 198.029,165.079 198.400,165.311 198.400 C 165.803 198.400,165.779 198.380,164.200 197.455 L 163.000 196.753 163.944 197.576 M84.109 198.800 C 84.109 199.790,84.187 200.195,84.282 199.700 C 84.378 199.205,84.378 198.395,84.282 197.900 C 84.187 197.405,84.109 197.810,84.109 198.800 M315.709 198.800 C 315.709 199.790,315.787 200.195,315.882 199.700 C 315.978 199.205,315.978 198.395,315.882 197.900 C 315.787 197.405,315.709 197.810,315.709 198.800 M368.120 200.000 C 368.120 201.210,368.195 201.705,368.287 201.100 C 368.378 200.495,368.378 199.505,368.287 198.900 C 368.195 198.295,368.120 198.790,368.120 200.000 M166.700 198.682 C 167.195 198.778,168.005 198.778,168.500 198.682 C 168.995 198.587,168.590 198.509,167.600 198.509 C 166.610 198.509,166.205 198.587,166.700 198.682 M255.106 200.258 C 254.732 201.084,254.497 201.830,254.583 201.917 C 254.828 202.161,256.065 199.596,255.917 199.152 C 255.845 198.935,255.480 199.433,255.106 200.258 M144.812 199.344 C 144.689 202.969,153.342 211.094,158.092 211.815 C 158.889 211.936,158.477 211.688,157.039 211.180 C 152.190 209.468,148.819 206.489,146.222 201.621 C 145.453 200.180,144.818 199.155,144.812 199.344 M213.498 204.428 C 207.260 209.435,207.451 208.859,210.809 212.534 C 217.239 219.569,228.172 212.172,223.160 204.178 C 219.938 199.041,220.218 199.033,213.498 204.428 M221.051 201.900 C 225.241 207.203,225.005 210.701,220.244 213.900 C 216.892 216.153,214.356 215.646,210.900 212.033 C 208.035 209.037,207.819 209.521,214.410 204.175 C 219.810 199.796,219.478 199.909,221.051 201.900 M94.657 203.259 C 94.338 206.311,94.389 216.242,94.740 219.200 C 94.883 220.410,95.000 216.765,95.000 211.100 C 95.000 205.435,94.981 200.800,94.957 200.800 C 94.933 200.800,94.798 201.906,94.657 203.259 M305.000 211.200 C 305.000 216.810,305.117 220.410,305.260 219.200 C 305.606 216.285,305.612 205.077,305.270 202.800 C 305.122 201.810,305.000 205.590,305.000 211.200 M83.731 205.400 C 83.733 206.940,83.805 207.521,83.892 206.691 C 83.979 205.861,83.977 204.601,83.889 203.891 C 83.800 203.181,83.729 203.860,83.731 205.400 M217.531 203.894 C 216.799 204.495,216.110 205.081,216.000 205.196 C 215.890 205.311,215.170 205.878,214.400 206.457 C 210.706 209.234,210.555 209.632,212.500 211.474 C 217.657 216.354,224.987 210.635,221.209 204.678 C 219.829 202.503,219.348 202.400,217.531 203.894 M316.131 205.400 C 316.133 206.940,316.205 207.521,316.292 206.691 C 316.379 205.861,316.377 204.601,316.289 203.891 C 316.200 203.181,316.129 203.860,316.131 205.400 M220.090 203.900 C 224.852 209.332,217.917 216.276,212.700 211.300 C 211.104 209.777,211.229 209.532,215.300 206.227 C 219.458 202.852,219.257 202.950,220.090 203.900 M13.293 210.000 C 13.293 210.770,13.375 211.085,13.476 210.700 C 13.576 210.315,13.576 209.685,13.476 209.300 C 13.375 208.915,13.293 209.230,13.293 210.000 M83.724 216.200 C 83.726 217.520,83.801 218.012,83.890 217.293 C 83.979 216.574,83.977 215.494,83.886 214.893 C 83.795 214.292,83.722 214.880,83.724 216.200 M316.124 216.200 C 316.126 217.520,316.201 218.012,316.290 217.293 C 316.379 216.574,316.377 215.494,316.286 214.893 C 316.195 214.292,316.122 214.880,316.124 216.200 M223.062 214.975 C 219.105 216.408,217.294 220.381,219.184 223.481 C 221.577 227.405,227.115 226.468,229.551 221.726 C 231.483 217.967,227.175 213.485,223.062 214.975 M227.600 216.105 C 230.800 218.997,230.022 222.687,225.705 225.100 C 221.777 227.296,217.305 222.454,219.517 218.400 C 221.196 215.323,225.411 214.126,227.600 216.105 M222.378 217.714 C 219.968 219.804,219.682 221.270,221.329 223.100 C 223.234 225.216,228.000 222.649,228.000 219.508 C 228.000 217.093,224.415 215.949,222.378 217.714 M226.977 218.089 C 227.983 219.525,227.726 220.593,225.999 222.153 C 222.407 225.399,218.747 221.973,222.160 218.560 C 223.842 216.878,225.982 216.668,226.977 218.089 M84.109 223.200 C 84.109 224.190,84.187 224.595,84.282 224.100 C 84.378 223.605,84.378 222.795,84.282 222.300 C 84.187 221.805,84.109 222.210,84.109 223.200 M315.701 223.000 C 315.705 223.880,315.787 224.193,315.883 223.695 C 315.979 223.198,315.975 222.478,315.875 222.095 C 315.775 221.713,315.696 222.120,315.701 223.000 M95.240 223.833 C 95.262 224.695,95.433 225.850,95.621 226.400 C 95.842 227.048,95.880 226.555,95.731 225.000 C 95.463 222.220,95.182 221.551,95.240 223.833 M304.270 224.557 C 304.111 225.853,304.061 226.994,304.160 227.093 C 304.426 227.359,304.903 223.818,304.719 222.947 C 304.632 222.536,304.430 223.260,304.270 224.557 M230.074 224.599 C 229.421 225.148,228.774 226.048,228.636 226.599 C 228.481 227.218,228.101 227.600,227.641 227.600 C 227.232 227.600,226.693 227.847,226.443 228.148 C 226.193 228.450,225.228 228.798,224.298 228.923 C 220.459 229.438,220.159 232.923,223.666 236.275 C 228.039 240.456,232.768 237.259,229.600 232.264 C 227.748 229.343,228.037 228.809,230.385 230.816 C 232.280 232.437,235.081 232.301,236.121 230.539 C 236.363 230.130,236.639 230.100,237.230 230.416 C 239.373 231.563,239.246 229.795,236.970 226.802 C 234.281 223.267,232.379 222.659,230.074 224.599 M234.400 224.513 C 235.344 225.279,238.400 229.423,238.400 229.937 C 238.400 230.516,238.179 230.519,237.265 229.948 C 236.670 229.576,236.353 229.683,235.489 230.548 C 234.053 231.983,232.406 231.932,230.661 230.400 C 229.909 229.740,229.003 229.200,228.647 229.200 C 227.800 229.200,227.785 230.924,228.626 231.622 C 232.435 234.783,229.088 239.641,224.963 236.939 C 221.002 234.344,220.635 229.491,224.399 229.491 C 225.581 229.491,226.140 229.286,226.429 228.745 C 226.649 228.335,227.252 228.000,227.771 228.000 C 228.451 228.000,228.786 227.712,228.973 226.966 C 229.579 224.553,232.708 223.138,234.400 224.513 M231.062 226.331 C 230.100 227.395,230.249 228.624,231.458 229.574 C 233.505 231.185,236.312 228.292,234.570 226.367 C 233.692 225.397,231.924 225.379,231.062 226.331 M234.323 226.825 C 235.312 228.408,233.641 230.162,231.813 229.460 C 230.989 229.144,230.602 227.321,231.204 226.595 C 231.930 225.721,233.715 225.852,234.323 226.825 M96.075 229.000 C 96.065 229.660,96.211 230.560,96.400 231.000 L 96.744 231.800 96.725 231.000 C 96.714 230.560,96.568 229.660,96.400 229.000 L 96.095 227.800 96.075 229.000 M303.454 229.554 C 303.300 230.518,303.258 231.391,303.361 231.494 C 303.630 231.763,304.115 228.945,303.907 228.322 C 303.812 228.036,303.608 228.590,303.454 229.554 M84.828 229.233 C 84.844 229.765,85.019 230.560,85.219 231.000 C 85.471 231.558,85.507 231.315,85.338 230.200 C 85.055 228.343,84.787 227.836,84.828 229.233 M314.849 229.000 C 314.816 229.440,314.696 230.250,314.583 230.800 L 314.377 231.800 314.806 230.819 C 315.042 230.279,315.161 229.469,315.072 229.019 C 314.913 228.221,314.907 228.221,314.849 229.000 M224.062 231.042 C 221.884 232.567,225.299 236.921,227.915 235.953 C 229.134 235.502,229.023 234.453,227.569 232.688 C 225.887 230.649,225.130 230.293,224.062 231.042 M227.340 233.135 C 228.554 234.815,228.569 234.887,227.826 235.430 C 226.412 236.465,223.081 233.528,223.736 231.824 C 224.208 230.593,225.967 231.233,227.340 233.135 M190.800 232.378 C 187.749 232.564,189.540 232.651,197.348 232.698 C 203.259 232.733,208.029 232.702,207.948 232.629 C 207.615 232.330,194.700 232.141,190.800 232.378 M96.868 233.000 C 96.862 233.440,97.011 234.160,97.200 234.600 C 97.638 235.619,97.638 234.568,97.200 233.200 C 96.943 232.396,96.877 232.357,96.868 233.000 M302.650 233.650 C 302.509 234.353,302.469 235.002,302.559 235.092 C 302.650 235.183,302.848 234.691,303.000 234.000 C 303.152 233.309,303.193 232.659,303.091 232.558 C 302.989 232.456,302.791 232.947,302.650 233.650 M180.439 233.422 C 179.691 233.747,179.192 234.125,179.330 234.263 C 179.468 234.401,179.845 234.294,180.169 234.026 C 180.492 233.758,181.981 233.396,183.478 233.222 L 186.200 232.905 184.000 232.868 C 182.790 232.848,181.188 233.097,180.439 233.422 M210.000 233.220 C 210.990 233.397,212.520 233.532,213.400 233.520 L 215.000 233.500 213.200 233.180 C 212.210 233.003,210.680 232.868,209.800 232.880 L 208.200 232.900 210.000 233.220 M85.606 233.833 C 85.609 234.255,85.795 234.870,86.018 235.200 C 86.315 235.638,86.352 235.476,86.156 234.600 C 85.827 233.129,85.598 232.810,85.606 233.833 M314.046 233.667 C 314.021 234.034,313.896 234.664,313.770 235.067 C 313.552 235.762,313.563 235.763,313.997 235.087 C 314.248 234.696,314.373 234.066,314.273 233.687 C 314.111 233.068,314.088 233.066,314.046 233.667 M216.200 234.022 C 216.860 234.217,217.804 234.876,218.298 235.488 C 218.792 236.100,219.191 236.420,219.185 236.200 C 219.156 235.114,217.075 233.571,215.726 233.634 C 215.318 233.654,215.525 233.823,216.200 234.022 M97.646 236.400 C 97.627 236.950,97.787 237.670,98.000 238.000 C 98.494 238.764,98.494 237.942,98.000 236.400 L 97.680 235.400 97.646 236.400 M302.049 236.000 C 302.016 236.330,301.889 237.050,301.767 237.600 C 301.575 238.464,301.607 238.503,301.999 237.888 C 302.248 237.497,302.375 236.777,302.281 236.288 C 302.186 235.800,302.082 235.670,302.049 236.000 M178.647 238.362 C 178.896 239.754,179.965 242.524,179.973 241.800 C 179.975 241.580,179.623 240.410,179.190 239.200 C 178.682 237.780,178.489 237.483,178.647 238.362 M217.845 241.629 C 215.578 248.524,211.298 256.492,206.121 263.453 C 204.955 265.022,204.000 266.500,204.000 266.737 C 204.000 268.121,214.045 275.200,216.008 275.200 C 216.247 275.200,215.070 274.489,213.392 273.621 C 210.315 272.029,204.922 267.983,204.536 266.977 C 204.421 266.678,205.129 265.391,206.109 264.117 C 211.660 256.897,219.833 240.898,219.097 238.691 C 219.018 238.453,218.454 239.775,217.845 241.629 M98.434 239.400 C 98.422 239.840,98.587 240.470,98.800 240.800 C 99.314 241.595,99.314 240.596,98.800 239.400 L 98.456 238.600 98.434 239.400 M301.029 239.829 C 300.881 240.415,300.851 240.984,300.961 241.094 C 301.071 241.204,301.281 240.815,301.429 240.229 C 301.576 239.642,301.606 239.073,301.496 238.963 C 301.386 238.853,301.176 239.242,301.029 239.829 M188.803 239.535 C 187.180 239.731,186.573 239.979,186.477 240.485 C 186.083 242.563,197.498 261.600,199.137 261.600 C 200.858 261.600,211.103 244.535,211.325 241.301 C 211.395 240.276,211.271 240.187,209.400 239.925 C 206.458 239.514,191.355 239.228,188.803 239.535 M205.501 240.349 C 207.977 240.511,210.178 240.818,210.392 241.032 C 211.383 242.023,200.771 260.719,199.177 260.790 C 198.060 260.840,187.200 242.736,187.200 240.825 C 187.200 240.155,198.154 239.870,205.501 240.349 M180.800 244.607 C 180.800 245.983,188.191 258.729,191.670 263.352 L 194.041 266.504 193.121 267.495 C 190.512 270.304,183.654 274.180,179.200 275.363 C 177.990 275.684,177.375 275.959,177.834 275.974 C 180.196 276.048,186.407 273.225,190.390 270.265 C 194.889 266.922,194.922 266.867,193.420 265.000 C 189.760 260.449,185.684 253.893,182.955 248.169 C 181.367 244.838,180.800 243.902,180.800 244.607 M146.582 250.182 C 146.042 250.722,145.612 251.397,145.627 251.682 C 145.642 251.967,145.840 251.816,146.068 251.346 C 147.118 249.176,149.898 249.157,151.211 251.311 C 151.643 252.020,151.998 252.361,151.999 252.069 C 152.005 249.868,148.216 248.548,146.582 250.182 M103.209 252.539 C 103.178 253.695,108.897 264.195,112.412 269.438 C 118.437 278.424,129.064 289.461,137.159 295.139 C 140.894 297.759,140.064 296.865,135.700 293.568 C 124.226 284.899,113.409 271.886,106.366 258.282 C 104.635 254.937,103.214 252.353,103.209 252.539 M152.028 254.233 C 152.044 254.875,152.216 255.760,152.410 256.200 C 152.647 256.734,152.686 256.402,152.527 255.200 C 152.246 253.080,151.988 252.580,152.028 254.233 M145.687 255.000 C 145.691 255.440,145.832 256.340,146.000 257.000 C 146.274 258.078,146.306 258.098,146.313 257.200 C 146.317 256.650,146.176 255.750,146.000 255.200 C 145.749 254.416,145.681 254.373,145.687 255.000 M152.806 257.833 C 152.809 258.255,152.995 258.870,153.218 259.200 C 153.515 259.638,153.552 259.476,153.356 258.600 C 153.027 257.129,152.798 256.810,152.806 257.833 M146.434 259.200 C 146.446 259.530,146.611 260.160,146.800 260.600 L 147.144 261.400 147.166 260.600 C 147.178 260.160,147.013 259.530,146.800 259.200 C 146.455 258.667,146.415 258.667,146.434 259.200 M153.628 260.676 C 153.613 261.158,153.780 261.664,154.000 261.800 C 154.473 262.092,154.473 261.701,154.000 260.600 C 153.669 259.829,153.655 259.831,153.628 260.676 M147.212 262.000 C 147.212 262.330,147.387 262.870,147.600 263.200 C 147.945 263.733,147.988 263.733,147.988 263.200 C 147.988 262.870,147.813 262.330,147.600 262.000 C 147.255 261.467,147.212 261.467,147.212 262.000 M154.420 262.542 C 154.231 265.829,163.135 275.200,166.448 275.200 C 166.712 275.200,165.833 274.653,164.495 273.984 C 161.430 272.453,157.688 268.528,155.816 264.881 C 155.059 263.406,154.430 262.354,154.420 262.542 M148.800 266.242 C 148.800 266.374,149.441 267.702,150.224 269.193 C 155.108 278.488,163.688 283.715,173.764 283.535 L 177.400 283.470 173.000 283.171 C 162.026 282.424,154.360 277.398,150.143 268.187 C 149.236 266.208,148.800 265.575,148.800 266.242 M299.000 272.000 C 298.659 272.660,298.469 273.200,298.579 273.200 C 298.689 273.200,299.059 272.660,299.400 272.000 C 299.741 271.340,299.931 270.800,299.821 270.800 C 299.711 270.800,299.341 271.340,299.000 272.000 M167.600 275.594 C 167.930 275.811,168.635 275.991,169.167 275.994 C 170.451 276.002,170.125 275.775,168.400 275.458 C 167.415 275.277,167.178 275.318,167.600 275.594 M217.200 275.582 C 217.530 275.805,218.145 275.991,218.567 275.994 C 219.590 276.002,219.271 275.773,217.800 275.444 C 216.924 275.248,216.762 275.285,217.200 275.582 M227.400 275.600 C 226.293 275.882,226.277 275.909,227.200 275.947 C 227.750 275.969,228.470 275.813,228.800 275.600 C 229.481 275.160,229.129 275.160,227.400 275.600 M171.891 276.289 C 172.601 276.377,173.861 276.379,174.691 276.292 C 175.521 276.205,174.940 276.133,173.400 276.131 C 171.860 276.129,171.181 276.200,171.891 276.289 M221.500 276.289 C 222.215 276.378,223.385 276.378,224.100 276.289 C 224.815 276.201,224.230 276.128,222.800 276.128 C 221.370 276.128,220.785 276.201,221.500 276.289 M105.591 279.588 C 106.057 280.241,106.642 280.902,106.891 281.056 C 107.141 281.211,106.841 280.676,106.225 279.868 C 104.888 278.115,104.384 277.892,105.591 279.588 M107.991 282.788 C 108.457 283.441,109.042 284.102,109.291 284.256 C 109.541 284.411,109.241 283.876,108.625 283.068 C 107.288 281.315,106.784 281.092,107.991 282.788 M178.200 282.800 L 177.400 283.144 178.200 283.125 C 178.640 283.114,179.540 282.968,180.200 282.800 L 181.400 282.495 180.200 282.475 C 179.540 282.465,178.640 282.611,178.200 282.800 M113.800 289.600 C 114.883 290.700,115.860 291.600,115.970 291.600 C 116.080 291.600,115.283 290.700,114.200 289.600 C 113.117 288.500,112.140 287.600,112.030 287.600 C 111.920 287.600,112.717 288.500,113.800 289.600 M121.200 296.925 C 121.200 296.994,121.785 297.579,122.500 298.225 L 123.800 299.400 122.625 298.100 C 121.530 296.888,121.200 296.616,121.200 296.925 M142.400 298.535 C 142.400 298.724,145.676 300.883,147.781 302.081 C 149.505 303.061,156.104 306.301,158.257 307.224 C 161.962 308.813,160.418 307.898,154.600 305.059 C 151.300 303.448,147.340 301.360,145.800 300.418 C 144.260 299.476,142.865 298.626,142.700 298.529 C 142.535 298.432,142.400 298.435,142.400 298.535 M132.000 305.746 C 132.000 305.856,132.540 306.330,133.200 306.800 C 133.860 307.270,134.400 307.564,134.400 307.454 C 134.400 307.344,133.860 306.870,133.200 306.400 C 132.540 305.930,132.000 305.636,132.000 305.746 M165.400 310.000 C 165.536 310.220,166.042 310.387,166.524 310.372 C 167.369 310.345,167.371 310.331,166.600 310.000 C 165.499 309.527,165.108 309.527,165.400 310.000 M167.800 310.800 C 167.936 311.020,168.442 311.187,168.924 311.172 C 169.769 311.145,169.771 311.131,169.000 310.800 C 167.899 310.327,167.508 310.327,167.800 310.800 M170.600 311.600 C 171.040 311.789,171.670 311.944,172.000 311.944 C 172.378 311.944,172.304 311.817,171.800 311.600 C 171.360 311.411,170.730 311.256,170.400 311.256 C 170.022 311.256,170.096 311.383,170.600 311.600 M228.200 311.600 C 227.696 311.817,227.622 311.944,228.000 311.944 C 228.330 311.944,228.960 311.789,229.400 311.600 C 229.904 311.383,229.978 311.256,229.600 311.256 C 229.270 311.256,228.640 311.411,228.200 311.600 M173.400 312.400 C 173.840 312.589,174.560 312.744,175.000 312.744 L 175.800 312.744 175.000 312.400 C 174.560 312.211,173.840 312.056,173.400 312.056 L 172.600 312.056 173.400 312.400 M223.000 312.800 C 221.460 313.191,220.504 313.531,220.875 313.555 C 221.614 313.604,226.893 312.440,227.165 312.168 C 227.497 311.837,225.753 312.101,223.000 312.800 M143.200 312.979 C 143.200 313.089,143.740 313.459,144.400 313.800 C 145.060 314.141,145.600 314.331,145.600 314.221 C 145.600 314.111,145.060 313.741,144.400 313.400 C 143.740 313.059,143.200 312.869,143.200 312.979 M178.000 313.434 C 179.210 313.734,181.100 314.068,182.200 314.177 C 183.449 314.300,182.849 314.088,180.600 313.611 C 176.484 312.739,174.705 312.617,178.000 313.434 M216.400 314.047 C 215.410 314.245,213.160 314.561,211.400 314.750 C 208.885 315.020,208.607 315.105,210.104 315.147 C 211.940 315.198,219.602 314.131,219.959 313.774 C 220.226 313.507,218.405 313.647,216.400 314.047 M253.900 314.229 C 252.405 315.040,252.496 315.378,254.000 314.600 C 254.660 314.259,255.200 313.894,255.200 313.790 C 255.200 313.532,255.157 313.547,253.900 314.229 M185.800 314.808 C 187.374 315.148,191.892 315.340,191.567 315.053 C 191.475 314.972,189.780 314.807,187.800 314.685 C 185.294 314.530,184.686 314.568,185.800 314.808 M195.943 315.682 C 198.290 315.879,201.759 315.880,203.943 315.683 C 207.425 315.370,207.022 315.336,199.800 315.335 C 192.357 315.333,192.088 315.357,195.943 315.682 M227.000 324.400 C 225.981 324.838,227.032 324.838,228.400 324.400 C 229.204 324.143,229.243 324.077,228.600 324.068 C 228.160 324.062,227.440 324.211,227.000 324.400 M175.000 325.200 C 175.440 325.389,176.160 325.538,176.600 325.532 C 177.243 325.523,177.204 325.457,176.400 325.200 C 175.032 324.762,173.981 324.762,175.000 325.200 M223.600 325.200 C 222.796 325.457,222.757 325.523,223.400 325.532 C 223.840 325.538,224.560 325.389,225.000 325.200 C 226.019 324.762,224.968 324.762,223.600 325.200 M178.800 326.000 C 179.350 326.176,180.250 326.317,180.800 326.313 C 181.698 326.306,181.678 326.274,180.600 326.000 C 178.908 325.569,177.456 325.569,178.800 326.000 M183.800 326.800 C 184.460 326.968,185.540 327.106,186.200 327.107 C 187.209 327.108,187.145 327.055,185.800 326.777 C 183.774 326.358,182.137 326.377,183.800 326.800 M212.900 327.076 C 213.285 327.176,213.915 327.176,214.300 327.076 C 214.685 326.975,214.370 326.893,213.600 326.893 C 212.830 326.893,212.515 326.975,212.900 327.076 M190.900 327.476 C 191.285 327.576,191.915 327.576,192.300 327.476 C 192.685 327.375,192.370 327.293,191.600 327.293 C 190.830 327.293,190.515 327.375,190.900 327.476 M207.505 327.483 C 208.002 327.579,208.722 327.575,209.105 327.475 C 209.487 327.375,209.080 327.296,208.200 327.301 C 207.320 327.305,207.007 327.387,207.505 327.483 M196.700 327.898 C 198.515 327.972,201.485 327.972,203.300 327.898 C 205.115 327.823,203.630 327.763,200.000 327.763 C 196.370 327.763,194.885 327.823,196.700 327.898 M189.700 376.276 C 190.085 376.376,190.715 376.376,191.100 376.276 C 191.485 376.175,191.170 376.093,190.400 376.093 C 189.630 376.093,189.315 376.175,189.700 376.276 M196.500 376.676 C 196.885 376.776,197.515 376.776,197.900 376.676 C 198.285 376.575,197.970 376.493,197.200 376.493 C 196.430 376.493,196.115 376.575,196.500 376.676 M204.100 376.676 C 204.485 376.776,205.115 376.776,205.500 376.676 C 205.885 376.575,205.570 376.493,204.800 376.493 C 204.030 376.493,203.715 376.575,204.100 376.676 " stroke="none" fill="#cd7c7c" fill-rule="evenodd"></path></g></svg>